<?xml version="1.0" encoding="UTF-8" standalone="no"?>
<svg
   version="1.0"
   viewBox="0 0 426.000000 536.000000"
   id="svg8"
   sodipodi:docname="bB.svg"
   inkscape:version="1.1.1 (3bf5ae0d25, 2021-09-20)"
   xmlns:inkscape="http://www.inkscape.org/namespaces/inkscape"
   xmlns:sodipodi="http://sodipodi.sourceforge.net/DTD/sodipodi-0.dtd"
   xmlns="http://www.w3.org/2000/svg"
   xmlns:svg="http://www.w3.org/2000/svg"
   xmlns:rdf="http://www.w3.org/1999/02/22-rdf-syntax-ns#"
   xmlns:cc="http://creativecommons.org/ns#"
   xmlns:dc="http://purl.org/dc/elements/1.1/">
  <defs
     id="defs12" />
  <sodipodi:namedview
     id="namedview10"
     pagecolor="#ffffff"
     bordercolor="#666666"
     borderopacity="1.0"
     inkscape:pageshadow="2"
     inkscape:pageopacity="0.0"
     inkscape:pagecheckerboard="0"
     showgrid="false"
     inkscape:zoom="1.5149254"
     inkscape:cx="212.88177"
     inkscape:cy="268.33004"
     inkscape:window-width="1920"
     inkscape:window-height="1001"
     inkscape:window-x="-9"
     inkscape:window-y="-9"
     inkscape:window-maximized="1"
     inkscape:current-layer="svg8" />
  <g
     transform="matrix(0.11171834,0,0,-0.10563057,19.197289,588.418)"
     fill="#000000"
     id="g4">
    <path
       d="m 2138,4723 c -6,-7 -16,-13 -22,-13 -13,-1 -56,-82 -56,-108 0,-11 -9,-27 -20,-37 -11,-10 -20,-22 -20,-27 0,-6 -33,-42 -72,-82 -40,-40 -96,-97 -125,-127 -28,-30 -57,-58 -63,-64 -6,-5 -85,-84 -175,-175 -91,-91 -192,-191 -226,-223 l -61,-58 6,-47 c 4,-26 9,-62 11,-79 5,-43 21,-70 43,-77 10,-4 28,-19 40,-35 24,-32 112,-61 135,-43 6,5 26,12 44,15 30,6 73,34 73,48 0,3 16,23 35,43 19,21 35,42 35,48 0,6 18,26 40,45 22,19 40,39 40,44 0,12 121,129 133,129 4,0 5,-10 1,-22 -4,-13 -8,-34 -9,-48 -4,-46 -17,-100 -26,-106 -5,-3 -9,-16 -9,-30 0,-13 -9,-50 -20,-81 -11,-32 -20,-72 -20,-91 0,-18 -4,-31 -9,-28 -10,6 -21,-40 -21,-86 0,-20 -4,-27 -12,-22 -8,5 -9,2 -5,-10 4,-9 1,-29 -7,-44 -8,-15 -19,-54 -25,-87 -6,-32 -16,-62 -22,-66 -6,-4 -9,-11 -6,-16 3,-5 -1,-28 -8,-51 -8,-23 -12,-48 -9,-57 3,-8 2,-15 -4,-15 -5,0 -13,-21 -17,-47 -4,-27 -15,-61 -25,-78 -11,-18 -16,-40 -13,-56 3,-15 0,-30 -6,-33 -6,-4 -11,-21 -11,-37 0,-20 -4,-28 -12,-23 -8,5 -9,-4 -5,-32 4,-23 3,-33 -2,-25 -6,10 -11,4 -15,-20 -17,-85 -31,-135 -42,-153 -7,-10 -10,-25 -7,-32 3,-8 1,-14 -4,-14 -5,0 -10,-15 -10,-32 0,-81 -39,-218 -62,-218 -12,0 -13,-2 -3,-8 15,-10 9,-58 -7,-54 -6,1 -11,-7 -11,-19 0,-11 -7,-27 -15,-35 -8,-9 -15,-21 -15,-27 0,-7 4,-6 10,3 5,8 10,10 10,4 0,-5 -8,-19 -17,-30 -13,-14 -18,-36 -18,-84 0,-36 4,-71 8,-78 10,-14 0,-18 -66,-26 -27,-3 -57,-1 -68,4 -11,6 -19,7 -19,1 0,-23 -182,-37 -232,-18 -10,4 -26,10 -35,14 -10,3 -22,5 -26,4 -5,-1 -30,5 -58,13 -27,8 -49,11 -49,6 0,-5 -16,-25 -35,-46 -19,-20 -35,-43 -35,-50 0,-7 -4,-14 -10,-16 -14,-5 -23,-158 -9,-158 7,0 9,-9 5,-25 -4,-14 -2,-25 4,-25 5,0 10,-5 10,-12 0,-18 70,-78 91,-78 11,0 19,-6 19,-14 0,-10 18,-17 58,-22 31,-4 64,-8 72,-9 8,-1 20,2 27,7 6,5 33,11 60,13 26,2 55,6 63,9 8,3 49,7 90,10 41,2 91,6 110,9 19,3 68,7 108,9 39,1 72,7 72,11 0,5 9,6 20,2 10,-3 29,-1 41,5 17,9 23,9 29,0 6,-9 9,-9 11,-1 4,12 82,21 214,25 39,1 80,6 91,10 12,3 40,2 63,-3 23,-5 39,-5 35,0 -3,5 -2,9 3,10 4,0 22,2 38,4 129,14 174,14 208,0 42,-17 180,-16 213,3 27,14 52,105 35,125 -5,7 -8,23 -5,34 4,12 -1,36 -10,54 -9,18 -16,38 -16,45 0,16 -102,124 -117,124 -6,0 -30,9 -54,20 -24,11 -56,20 -71,20 -14,0 -28,5 -30,12 -3,7 -11,9 -24,3 -10,-4 -26,-9 -34,-11 -8,-2 -21,-12 -29,-23 -9,-14 -25,-21 -45,-21 -17,-1 -56,-7 -87,-14 -34,-8 -62,-10 -72,-5 -9,6 -18,5 -21,0 -8,-13 -118,-2 -134,13 -9,9 -10,24 -1,66 6,30 12,62 13,70 1,8 6,23 10,32 4,10 6,23 3,30 -2,7 0,22 6,33 9,17 18,50 31,115 7,32 18,76 23,90 4,8 7,18 8,23 2,4 3,8 4,10 3,4 13,100 13,130 1,15 4,27 8,27 4,0 11,20 14,45 4,24 11,47 17,50 5,4 9,24 9,46 0,21 4,39 9,39 4,0 14,34 20,75 7,41 17,77 22,81 6,3 9,13 8,22 -3,21 9,71 22,94 5,10 9,27 9,37 0,11 4,22 9,25 9,6 11,17 30,136 11,68 38,140 53,140 4,0 8,16 8,36 0,19 5,44 10,55 6,10 15,40 20,66 6,27 12,57 15,68 11,53 37,173 41,194 3,14 7,29 10,33 3,5 10,33 14,61 5,29 13,70 20,92 6,22 13,53 16,70 3,16 12,42 20,56 7,15 14,43 16,63 1,21 6,40 10,42 4,3 8,17 8,30 0,14 13,58 29,97 32,81 50,177 32,177 -6,0 -11,12 -11,26 0,17 -6,28 -20,31 -11,3 -20,13 -21,22 -1,29 -34,76 -65,91 -16,8 -46,25 -67,37 -41,25 -101,27 -119,6 z"
       id="path2" />
  </g>
  <metadata
     id="metadata6">
    <rdf:RDF>
      <cc:Work>
        <dc:format>image/svg+xml</dc:format>
        <dc:type
           rdf:resource="http://purl.org/dc/dcmitype/StillImage" />
        <cc:license
           rdf:resource="http://creativecommons.org/licenses/publicdomain/" />
        <dc:publisher>
          <cc:Agent
             rdf:about="http://openclipart.org/">
            <dc:title>Openclipart</dc:title>
          </cc:Agent>
        </dc:publisher>
      </cc:Work>
      <cc:License
         rdf:about="http://creativecommons.org/licenses/publicdomain/">
        <cc:permits
           rdf:resource="http://creativecommons.org/ns#Reproduction" />
        <cc:permits
           rdf:resource="http://creativecommons.org/ns#Distribution" />
        <cc:permits
           rdf:resource="http://creativecommons.org/ns#DerivativeWorks" />
      </cc:License>
    </rdf:RDF>
  </metadata>
</svg>
