<?xml version="1.0" encoding="UTF-8" standalone="no"?>
<svg
   id="svg2"
   height="973pt"
   width="379pt"
   version="1.1"
   viewBox="0 0 379 973"
   sodipodi:docname="1529489873.svg"
   inkscape:version="1.1.1 (3bf5ae0d25, 2021-09-20)"
   xmlns:inkscape="http://www.inkscape.org/namespaces/inkscape"
   xmlns:sodipodi="http://sodipodi.sourceforge.net/DTD/sodipodi-0.dtd"
   xmlns="http://www.w3.org/2000/svg"
   xmlns:svg="http://www.w3.org/2000/svg">
  <defs
     id="defs6" />
  <sodipodi:namedview
     id="namedview4"
     pagecolor="#ffffff"
     bordercolor="#666666"
     borderopacity="1.0"
     inkscape:pageshadow="2"
     inkscape:pageopacity="0.0"
     inkscape:pagecheckerboard="0"
     inkscape:document-units="pt"
     showgrid="false"
     inkscape:zoom="0.31294964"
     inkscape:cx="-52.724138"
     inkscape:cy="442.56322"
     inkscape:window-width="1920"
     inkscape:window-height="1001"
     inkscape:window-x="-9"
     inkscape:window-y="-9"
     inkscape:window-maximized="1"
     inkscape:current-layer="svg2" />
  <path
     id="path4"
     d="m 201.95185,124.62069 h 7.58247 c 23.6789,2.78929 47.61384,4.36857 70.82429,12.16286 2.82164,1.09214 6.79809,2.17643 6.78174,7.62928 5.19118,30.66644 4.01459,63.05358 -0.16885,93.86143 -4.80444,38.13072 -2.56564,77.33786 1.55243,115.39001 5.54525,41.68999 6.602,84.25214 5.53435,126.59428 -1.96643,35.79715 -3.34458,71.97142 -0.7844,107.77642 2.34773,21.57572 3.56792,43.41857 4.24336,65.13572 v 89.28857 c -1.32911,39.05785 -1.26919,78.63428 -6.88524,117.08714 -1.34,7.85715 -3.00141,18.88858 -9.45631,20.94715 -4.4776,-1.87786 -8.84079,-4.80071 -13.66698,-3.9993 -36.57785,0.50287 -72.70902,10.12001 -109.2106,12.62644 H 143.2312 c -11.40096,-1.24928 -7.53891,-22.825 -7.93656,-33.57357 3.44264,-58.32357 9.85941,-116.38786 18.90719,-173.37572 -0.87156,-75.47571 -1.9392,-150.98285 -2.85978,-226.46643 -0.72447,-24.70285 -0.88244,-49.62571 1.89018,-74.09285 0.6809,-6.38 0.098,-13.09786 -1.02951,-19.21071 -17.27848,-2.49858 -29.28952,25.65357 -47.07457,21.19071 -4.63011,-1.54001 -6.482152,-8.86286 -8.127201,-14.50428 -5.104012,-20.57787 -4.728155,-42.78215 -5.931983,-64.24787 v -32.73286 c 1.519764,-8.72928 -0.179757,-17.92213 0.768054,-26.78499 18.5749,-5.12286 34.20286,-22.30643 49.67831,-36.92857 22.6494,-23.75214 44.55796,-50.46642 60.43652,-83.77286 m 14.77821,22.19643 c -7.23386,7.60572 -9.43997,22.96643 -11.6243,35.01929 14.58212,-7.10285 31.21237,-13.49858 41.67096,-30.50929 -8.98785,-4.98142 -20.20905,-4.72999 -30.04666,-4.51 m 44.99373,0.83286 c -8.09996,3.38643 -8.35597,19.42286 -16.07464,23.94857 -18.8418,12.375 -37.55289,25.28428 -56.50907,37.33714 0.0219,0.51072 0.0545,1.51643 0.0709,2.01929 26.40795,1.80714 49.97247,-21.01 76.29872,-19.33643 7.2284,9.16928 1.49252,-16.15428 2.41854,-19.525 -10.53484,-1.61072 -2.36408,-19.18714 -6.20435,-24.44357 m -11.46087,56.63428 c -47.68468,15.32929 -90.78823,50.00286 -133.05839,84.07928 0.0817,6.13644 -0.49568,12.66573 0.4739,18.59787 12.40869,-6.86715 25.26404,-12.42214 37.10621,-21.27714 17.64888,-18.29144 32.85743,-48.39215 56.31301,-49.97144 13.65609,-4.54143 26.4951,-13.76572 37.8089,-25.5907 1.05129,-1.06858 4.52661,-6.37215 1.35634,-5.83787 m -89.77504,11.76215 c -13.44364,11.57356 -29.94316,14.72428 -42.04136,29.77071 -4.4449,5.17786 -7.23931,13.01929 -7.59882,21.23 -1.2583,7.12642 6.66735,2.83643 9.17305,3.23714 20.45418,-16.49214 41.61649,-32.71714 61.47693,-49.82214 -3.39361,-1.1 -9.34193,1.87786 -13.3674,2.71072 -4.27059,3.06428 -4.2597,-8.39929 -7.6424,-7.12643 m 107.40758,0.0864 c -21.11873,8.77642 -41.13713,22.49499 -60.77423,36.5907 -4.80987,4.58072 -11.2321,7.41715 -14.62024,14.15858 19.21222,-8.01429 39.59014,-10.03357 58.14325,-21.30072 8.82443,-5.82214 18.95074,-14.54356 20.1001,-29.86499 -0.71358,0.10215 -2.1353,0.31428 -2.84888,0.41643 m -8.74273,41.64285 c -41.99233,7.16572 -84.48583,20.92358 -121.71733,50.80429 -10.12632,8.32857 -23.78785,21.00214 -22.47508,39.81999 32.2909,-9.9 60.95399,-35.59285 91.93758,-51.25214 20.33433,-6.12857 40.71225,-17.30143 56.84137,-36.50429 3.1757,-4.18 -2.72904,-3.39427 -4.58654,-2.86785 m 2.65822,19.51715 c -9.48355,7.73928 -20.92263,11.41642 -29.08796,21.89785 5.95922,3.88143 15.60619,1.73643 22.74745,4.54143 2.10262,5.07571 2.63644,15.015 -2.88156,15.52571 -15.79685,7.11072 -29.24593,21.615 -44.59065,30.28143 16.19448,0.91928 32.74847,-7.22857 49.1336,-4.20357 4.86433,2.81286 2.73994,12.23357 -0.58831,15.69857 -18.44414,20.86071 -40.32005,33.86429 -61.59675,47.43358 25.01347,0.2357 48.26749,-18.22072 72.94324,-23.46929 0.65911,-34.83072 -6.99963,-69.23715 -4.69547,-104.115 0.6809,-3.08001 0.21788,-4.27429 -1.38359,-3.59071 m -35.2923,36.29999 c -16.47774,4.40786 -34.68766,9.00429 -47.80448,24.72644 -1.73767,21.71714 0.92601,44.00785 -0.0381,65.93713 20.24718,-12.50071 40.97916,-24.39643 60.00072,-40.73928 1.41627,-1.96429 4.30328,-3.70071 3.67686,-6.96929 -19.70791,0.46358 -39.40493,5.10715 -58.98212,7.33858 -0.64276,-20.30287 15.35561,-27.28 26.2391,-32.92144 7.11402,-4.95785 17.74147,-4.5257 21.85954,-15.65928 0.58285,-3.75571 -3.95466,-1.44571 -4.95149,-1.71286 m 34.82385,84.82571 c -27.51917,7.54286 -54.98387,17.08143 -80.89069,32.68573 -3.95465,3.20571 -9.81583,6.50571 -8.55208,14.5907 1.61781,19.17929 1.4435,38.95572 4.89157,57.68714 4.13987,0.72286 7.7459,-2.44356 11.47177,-4.42356 18.58579,-10.92144 37.22061,-21.70143 55.81185,-32.58357 3.15392,-6.71785 9.61974,-8.82358 13.04602,-14.15858 -24.58315,0.22787 -46.12676,23.00572 -70.90056,20.42858 -3.98734,-2.71858 -0.93691,-8.745 1.084,-12.0293 18.58034,-32.36356 47.82627,-43.71713 73.99999,-58.06428 1.62871,-0.70714 4.41222,-7.02429 0.0381,-4.13286 m 2.06992,14.82643 c -17.48001,9.78215 -35.24327,20.17716 -49.96156,37.29001 -2.4349,1.64214 0.50658,4.32928 1.99912,2.13714 16.82091,-4.63572 33.8379,-9.60144 49.92344,-18.01643 -1.41627,-5.43714 2.97416,-20.71144 -1.961,-21.41072 m -8.56297,60.61787 c -23.40654,8.61142 -44.63422,25.99928 -67.00036,38.70427 -1.31821,2.79716 1.7322,4.33714 3.06132,5.42144 24.51232,-11.35357 49.90166,-24.64 75.08943,-30.29714 3.91107,-9.93144 -5.20206,-17.64715 -11.15039,-13.82857 m -4.94058,28.33285 c -23.93494,2.46715 -45.24977,20.59357 -68.85241,25.55929 -6.41135,0.58142 -5.03321,12.21785 -3.31735,17.98499 27.06706,-5.16213 51.49769,-23.82285 75.01863,-42.67999 0.0709,-1.90143 -0.877,-2.18429 -2.84887,-0.86429 m 18.43326,1.35143 c -27.38299,24.42 -58.5082,39.13642 -87.35105,59.80071 -1.80846,7.76286 4.58653,4.87143 7.25565,4.80072 26.61494,-2.68715 52.43459,-12.94858 78.49393,-20.49929 0.39765,-14.28428 3.49165,-31.98643 1.60147,-44.10214 m -16.79367,58.37857 c -24.63761,5.17 -48.88848,14.99143 -73.69495,18.02428 0.23422,9.31857 0.0654,19.70572 0.90968,28.6 24.16371,-10.52071 47.9897,-23.55571 70.33949,-40.62142 2.10262,-1.35929 9.09135,-8.04571 2.44578,-6.00286 m 14.01017,8.44642 c -25.45469,14.16644 -50.64792,29.37001 -75.5579,45.41429 3.15393,2.84429 7.23931,1.17072 10.70917,0.98215 22.41516,-5.03644 44.74316,-11.935 66.58637,-20.46786 -0.55016,-7.02429 1.50887,-21.86643 -1.73764,-25.92858 m -4.21613,41.00644 c -27.50283,6.60785 -55.53949,11.20429 -82.17078,23.22571 -0.60463,9.90785 -0.90968,22.17286 0.14709,32.13572 24.52322,-13.78143 48.98106,-28.35644 73.46072,-42.45214 2.87066,-6.38 8.73183,-6.45073 12.18535,-11.87215 -0.65367,-2.02714 -2.33684,-1.67357 -3.62238,-1.03714 m 5.95922,16.46071 c -18.23173,7.84929 -35.84792,18.88858 -52.70151,31.64072 -1.45439,1.86214 -4.434,2.54571 -4.77718,5.63357 13.56349,-5.61 27.2904,-12.16286 41.54023,-12.46142 7.1467,1.02928 6.76539,15.52571 0.87699,18.80213 -23.79873,17.68643 -50.65336,24.17643 -75.11666,39.50572 0.66456,4.08571 6.27516,-0.0471 8.42134,1.06071 28.87553,-5.17 57.78373,-11.09429 86.14178,-20.515 1.01316,-19.66643 -0.94782,-39.42714 -0.3105,-59.17215 1.60148,-4.97356 -1.94465,-5.79071 -4.07449,-4.49428 m -53.97615,47.81071 c -11.6951,3.44144 -23.35752,7.12643 -35.16702,9.68 -2.37497,0.84072 -2.79986,4.95786 -3.06677,7.92001 13.23122,-6.09715 27.55186,-7.48 40.12941,-16.51571 0.33227,-1.94072 -1.12213,-1.15501 -1.89562,-1.0843 m 47.31969,34.5793 c -12.95885,3.37071 -26.02664,5.96357 -39.04542,8.82356 -3.45351,3.81072 -2.06991,-3.22143 -4.10172,-2.65572 -13.61795,6.4743 -27.84601,10.45001 -41.87796,14.04858 -4.7336,10.19857 -7.94745,24.27071 -5.94832,36.00928 17.88855,-1.85428 37.42215,-7.04 51.09458,-25.01713 14.09732,-8.65858 28.13471,-17.5293 42.21568,-26.21144 2.90335,-1.55571 -0.52838,-5.60214 -2.33684,-4.99713 m 7.09224,29.87285 c -31.9423,16.50786 -63.82467,33.34572 -95.86501,49.47643 -0.59919,3.42571 4.67369,1.52428 5.79037,2.20785 29.27861,-2.67142 58.97667,-9.39715 86.18534,-25.83428 7.94199,-2.85215 6.49304,-20.58572 3.8893,-25.85 m 1.30188,41.59572 c -33.22783,21.89785 -69.97998,29.88857 -106.26913,30.67428 -2.47846,14.87357 -4.11807,30.10857 -6.23703,45.11571 2.12985,3.19786 4.36864,6.435 6.99419,8.81572 12.75185,-10.63857 25.34575,-21.78785 38.17388,-32.21429 2.77805,2.22358 -0.34318,9.97072 1.57423,13.34143 5.66507,-2.15286 10.88347,-7.46429 16.73919,-8.47786 -1.07854,14.37858 -16.37423,9.71142 -19.89856,21.065 20.31801,0.44001 40.56517,-3.01714 60.62716,-7.39357 11.56983,-0.0236 3.86206,-24.09 5.14759,-33.42429 -6.39499,8.21858 -15.49724,11.04714 -23.10696,16.99501 -3.19205,1.82286 -5.25653,-6.38786 -1.39993,-7.58215 10.4695,-13.30214 29.60001,-23.02928 27.65537,-46.91499 z"
     style="stroke-width:0.654212" />
</svg>
