<?xml version="1.0" encoding="UTF-8" standalone="no"?>
<svg
   id="svg2"
   height="994pt"
   width="910pt"
   version="1.1"
   viewBox="0 0 910 994"
   sodipodi:docname="1529489866.svg"
   inkscape:version="1.1.1 (3bf5ae0d25, 2021-09-20)"
   xmlns:inkscape="http://www.inkscape.org/namespaces/inkscape"
   xmlns:sodipodi="http://sodipodi.sourceforge.net/DTD/sodipodi-0.dtd"
   xmlns="http://www.w3.org/2000/svg"
   xmlns:svg="http://www.w3.org/2000/svg">
  <defs
     id="defs6" />
  <sodipodi:namedview
     id="namedview4"
     pagecolor="#ffffff"
     bordercolor="#666666"
     borderopacity="1.0"
     inkscape:pageshadow="2"
     inkscape:pageopacity="0.0"
     inkscape:pagecheckerboard="0"
     inkscape:document-units="pt"
     showgrid="false"
     inkscape:zoom="0.30633803"
     inkscape:cx="931.97701"
     inkscape:cy="941.77011"
     inkscape:window-width="1920"
     inkscape:window-height="1001"
     inkscape:window-x="-9"
     inkscape:window-y="-9"
     inkscape:window-maximized="1"
     inkscape:current-layer="svg2" />
  <path
     id="path4"
     d="m 504.69596,161.5862 h 6.85959 c 17.9849,16.01601 38.59805,28.60103 59.61715,39.84784 2.92409,1.82226 7.89161,1.03925 8.68972,5.32443 21.36997,6.66977 39.05215,23.18407 55.44772,38.63773 9.59104,9.87298 20.06962,19.57512 25.38115,32.79367 17.24873,22.84951 35.9767,44.53162 53.26671,67.35266 1.321,22.17327 30.96788,27.66855 34.68321,49.52862 5.68307,18.55721 1.51364,38.01133 3.44011,56.95293 3.2681,23.26948 6.41237,46.63151 11.02212,69.65185 v 40.23933 c -1.81638,53.16603 -12.61833,106.75205 -37.76556,153.54727 -28.92446,53.84939 -71.03144,102.81566 -127.6144,125.64382 -43.5243,18.93448 -90.9841,25.73238 -137.79714,28.03157 h -17.09736 c -37.07753,-1.41652 -73.79041,-9.24657 -108.89331,-21.51128 -8.04987,-4.37059 -16.80152,-6.61283 -25.69764,-8.19308 C 247.98102,799.34371 192.57457,746.13497 163.84275,676.9458 145.89224,634.20798 138.79185,587.47681 137.00299,541.21546 v -29.61182 c -2.65576,-48.24735 19.12015,-92.13833 35.69461,-135.84424 5.58674,-15.36825 14.11822,-30.12433 15.12962,-46.80946 1.96774,-9.43165 -14.24895,-10.37125 -8.90302,-20.56455 31.04358,-4.85463 49.70275,-34.25291 73.45328,-52.34744 33.26589,-29.17049 70.99704,-52.95248 111.93437,-68.47734 15.25346,1.92904 30.30739,-3.26726 42.97389,-11.85185 29.42672,-17.8098 65.12133,-9.76621 97.41022,-14.12256 m -10.4029,26.42997 c -5.40098,16.10144 -17.73033,30.57279 -16.40934,48.38971 12.7697,-11.21833 27.1769,-23.61115 32.64667,-40.48847 -4.51343,-3.32421 -10.84323,-5.96507 -16.23733,-7.90124 m -34.72449,4.35637 c -6.35045,3.08219 -11.57254,10.12211 -12.84538,17.3044 6.69445,-3.06796 21.0466,-8.20732 12.84538,-17.3044 m -34.11904,5.07529 c -8.40075,2.3419 -19.01694,4.96852 -24.25279,12.46402 6.46741,6.1715 16.38869,9.17538 24.528,12.8128 4.45839,-6.91892 8.13242,-20.77098 -0.27521,-25.27682 m 108.33602,6.30675 c -3.0961,4.02179 -7.94666,14.42865 -0.5573,16.13702 3.39195,-3.33133 6.43301,-7.90124 8.96494,-12.19353 0.0551,-3.64452 -5.77939,-4.04315 -8.40764,-3.94349 m -160.10283,9.08285 c 2.24983,7.87276 12.36376,14.10833 17.8473,5.65899 -4.35518,-3.69436 -12.30184,-3.47369 -17.8473,-5.65899 m 189.45387,9.55978 c -14.5792,1.72973 -30.32115,11.38916 -36.32071,24.87821 15.12962,-6.27116 30.62388,-16.85597 48.01709,-16.81325 2.23607,-6.85486 -7.238,-8.2785 -11.69638,-8.06496 m -218.6673,0.7403 c -9.96257,1.20297 -20.66132,5.31731 -27.74107,12.37147 21.14293,4.12857 41.32263,19.2904 62.67884,26.18796 3.64653,1.08197 9.81809,3.47369 12.10232,0.54098 -13.16187,-10.46379 -21.26677,-33.30618 -40.75845,-30.54431 -0.73618,-4.456 0.75683,-11.74506 -6.28164,-8.5561 m 52.88829,8.21443 c 1.39668,6.8335 12.44632,6.14303 16.1066,11.72372 0.17889,10.62039 1.69254,21.50416 0.43346,31.98931 -13.36828,1.18163 -27.19754,1.33822 -40.75846,0.98943 0.16513,3.7086 7.74714,3.65877 6.61878,8.47069 -2.12599,5.04683 -1.56181,13.71683 -9.34334,10.94071 -22.6497,-4.06451 -44.68707,-11.76642 -67.02715,-17.54642 -1.67189,-0.0356 -5.38034,2.2636 -4.1763,4.12145 21.83784,13.32532 42.83628,28.13123 64.86676,41.12911 3.51579,3.3598 6.85958,-1.71549 9.7424,-3.42386 16.5951,-11.81626 30.17667,-27.67566 47.59739,-38.3103 18.61788,-10.75564 40.16675,-13.40362 60.88999,-16.69224 11.99223,-3.03237 12.36376,-18.63551 21.65895,-25.41918 3.8598,-3.72284 -4.87809,-2.34902 -6.37109,-1.81515 -8.08426,7.92259 -16.14789,15.94483 -24.23903,23.86029 -11.65511,1.48059 -24.62433,0.27049 -34.51121,-7.04704 -13.40268,-8.34968 -23.85374,-25.19853 -41.48775,-22.97052 m 187.18339,8.05784 c -19.9045,3.62317 -38.93519,11.11155 -57.15403,19.97374 -3.66716,2.68357 -11.73767,5.78 -9.13694,11.60271 4.1419,3.46657 10.36851,7.75175 15.65939,4.4133 18.67981,-8.95474 38.39854,-17.89523 52.30347,-34.17461 1.41045,-1.77244 0.0551,-2.5412 -1.67189,-1.81514 m 14.69616,12.09386 c -17.33817,10.0011 -35.71525,20.3083 -48.85648,35.91145 21.09477,-7.07552 42.10698,-14.42153 63.27743,-21.24079 5.47666,-8.58457 -5.84131,-18.77075 -14.42095,-14.67066 m -305.87415,2.05716 c -2.16039,1.52331 -5.16705,4.59126 -2.40808,7.04705 6.45365,5.41697 18.05371,5.5451 24.28031,2.7334 -5.112,-4.69803 -15.06769,-6.28539 -21.87223,-9.78045 m -26.00037,20.74963 c -10.5061,9.85163 -19.49168,21.31198 -29.81889,31.37715 -4.19006,7.01857 5.62114,5.78712 9.31582,6.31387 25.64948,1.19586 52.31723,6.28539 77.20988,4.14992 -17.95738,-14.01578 -37.71051,-29.51216 -56.70681,-41.84094 m 353.73299,5.01124 c -23.2414,1.90769 -45.58836,9.92281 -66.32536,20.62862 1.96086,6.90468 11.24228,10.28583 17.28312,13.14025 21.59702,-1.7155 36.32759,-21.17673 53.94096,-32.1388 3.1305,-2.88288 -4.05245,-1.81514 -4.89872,-1.63007 m 19.93889,12.05116 c -14.77184,13.88765 -38.50173,12.96228 -49.93666,31.13512 -2.33929,2.91135 3.11673,5.65187 5.38033,4.8048 20.4205,-4.31364 40.9167,-10.38549 61.26152,-13.50327 -1.65126,-8.82661 -10.44418,-18.04471 -16.70519,-22.43665 m -177.69556,2.10699 c -7.61641,1.48771 -14.40031,5.66611 -21.08101,9.52419 -30.36931,19.06972 -60.085,39.60581 -86.66331,64.07828 -13.47148,23.66098 -10.77443,54.60391 -27.95435,76.43551 -14.84752,23.66099 -15.56995,53.13756 -15.18465,80.39325 -0.30962,17.53931 -0.9082,36.73006 8.88236,52.01288 13.68477,21.41874 17.89547,47.17249 23.49597,71.68055 25.3261,52.60369 87.53021,71.56664 140.45979,67.23876 31.33254,-6.1715 62.79581,-20.20152 84.90197,-44.57433 11.95095,-12.39283 8.40076,-31.98931 18.94126,-45.19362 7.61641,-10.65599 12.21239,-23.24813 15.43235,-35.98263 6.73573,-29.56912 12.30871,-59.87853 10.21025,-90.40149 -2.5388,-42.12566 -14.01502,-83.14088 -28.10572,-122.51179 -8.69661,-2.45579 -7.18984,-12.71315 -4.58911,-19.51818 -7.54073,-16.27227 -23.04188,-26.30897 -37.61419,-35.07862 -24.96833,-14.38594 -52.42731,-25.84629 -81.13161,-28.10276 M 223.3911,324.30174 c -6.69446,11.50305 -14.88881,22.70003 -18.03996,35.91145 2.4356,10.10789 9.84561,-16.55699 12.85914,-6.57012 0.15825,4.17129 4.33455,5.63764 7.65081,5.84407 19.0651,0.0641 39.14161,-0.17085 57.5462,-1.50195 -3.5502,-9.97976 -17.86794,-19.56801 -27.69978,-11.59559 -10.26529,-0.90401 -19.69808,-15.88788 -30.1285,-8.34968 -4.72672,-0.54811 -0.29585,-10.13636 -2.18791,-13.73818 m 26.11732,2.8473 c -2.45624,0.17794 -9.50159,-0.0712 -4.94,2.95406 22.34009,7.01857 47.64556,6.34945 67.67389,20.27982 4.13502,3.18185 8.01547,12.79146 1.76134,15.83806 -30.49316,10.15771 -64.88052,6.19997 -94.96773,10.17906 26.93607,5.99355 52.38602,23.96707 81.23481,21.41163 15.0608,-19.27616 31.25685,-37.74084 47.78316,-55.73572 0.7637,-1.6799 -1.52741,-2.51984 -2.58697,-3.25303 -22.13368,-11.73083 -48.00333,-7.60226 -71.85707,-8.66288 -3.0617,-7.95818 -16.93911,-1.64431 -24.10143,-3.011 m 418.87496,3.40963 c -20.96404,5.60204 -40.01538,16.88443 -59.57586,26.20931 -0.63986,1.60871 -1.9815,8.79813 2.02967,7.48837 24.89265,-6.22133 50.55589,-8.34968 75.93016,-10.39973 -3.92861,-8.99033 -9.57728,-19.16939 -18.38397,-23.29795 m -54.11296,5.78 c -4.65791,1.58736 -18.15003,0.18506 -13.82925,8.41374 7.92601,0.29896 15.72131,-4.17129 22.96619,-7.5382 -0.90819,-3.13203 -6.7151,-0.21355 -9.13694,-0.87554 m 47.45291,31.35578 c -16.38181,2.45579 -33.88511,2.84017 -48.65007,11.30374 1.43108,5.10378 0.44722,21.33333 8.90301,15.98754 15.48739,-7.08975 32.36458,-13.22566 44.02656,-26.54387 0.74306,-2.72627 -3.95613,0.45557 -4.2795,-0.74741 m 37.56603,1.92192 c -25.85588,9.03303 -52.0145,23.39761 -71.57498,42.46734 24.4936,1.2884 50.05363,-8.33544 75.15957,-4.53431 4.81616,0.39151 11.11845,2.11412 12.72842,7.36025 -13.04491,18.785 -35.33683,26.70758 -55.78486,33.3916 -2.35992,2.12835 -4.2107,5.29596 -4.86432,8.52763 21.89975,-3.01101 43.79951,-6.34946 65.60294,-9.75196 5.68306,-24.19486 -8.15306,-48.37547 -5.82755,-72.97606 -2.58697,-0.55523 -5.07761,3.05371 -7.8641,3.01812 -2.75209,-2.29206 -3.03418,-8.34256 -7.57512,-7.50261 M 202.83987,383.2549 c -7.81594,0.66199 2.02967,9.14691 -2.42184,13.23277 -5.57298,6.92604 -12.35688,14.8771 -11.5175,24.58637 29.89457,-2.16395 61.26151,-8.37104 89.73189,-14.61373 -25.5738,-3.45945 -48.70511,-24.565 -75.79255,-23.20541 m 475.32031,36.41684 c -16.2098,0.95385 -32.77051,3.2032 -47.59051,10.4282 -6.64629,4.34924 -0.14448,12.98365 -0.13072,19.04838 -0.86691,4.86175 3.55707,2.41308 5.26337,1.3667 15.79011,-9.31064 31.94488,-18.2369 46.48967,-29.562 1.7407,-2.22088 -3.68091,-1.69414 -4.03181,-1.28128 m -388.70517,2.81882 c -21.68647,2.02158 -45.82229,5.75153 -65.67862,10.115 20.15905,3.43811 42.98764,19.89544 62.04586,5.31731 3.21307,-0.21354 -3.32315,5.94373 0.4541,6.07186 8.0705,-1.17451 9.72175,-10.97631 10.89139,-17.78134 2.22919,-6.11455 -4.89184,-3.77978 -7.71273,-3.72283 M 181.54557,441.603 c -8.70348,1.42364 -2.16039,14.15815 -8.07739,19.16226 3.15803,0.86131 7.74026,-0.63352 9.54976,2.98254 0.21329,7.74463 -8.3526,11.31798 -11.48998,16.75631 30.19043,-4.87599 60.18132,-11.04038 90.33735,-16.10855 7.82282,-0.30608 15.59059,-2.33478 22.54649,-6.06473 0.0688,-3.4381 -4.6579,-1.37382 -6.32292,-2.06429 -33.14892,1.17451 -63.05038,-19.43987 -96.54331,-14.66354 m 523.49566,18.58569 c -23.74366,1.58736 -46.414,10.115 -70.1095,12.07251 -2.34615,0.0142 -3.61211,2.32766 -2.62136,4.82616 1.32101,30.60125 1.12835,61.26657 1.89206,91.89631 -0.84627,2.61238 -2.74521,4.84038 -3.08234,7.63073 9.46031,-3.11778 19.1683,-5.90812 28.2502,-10.12923 -11.77894,-2.11412 -8.23563,-18.55722 -0.70866,-23.95995 13.21691,-14.94117 36.65096,-17.64609 48.01021,-33.41296 -20.70948,9.453 -43.88208,9.46012 -66.07768,7.85852 -6.81831,-1.8365 -1.321,-11.04749 1.37604,-14.48559 19.4504,-20.84928 46.84057,-30.28094 71.72634,-42.09008 -2.14663,-1.80802 -6.04083,0.1922 -8.65531,-0.20642 m 19.08574,11.33933 c -19.49856,8.59882 -38.72879,17.90234 -58.22047,26.53675 -4.03869,1.9504 -8.34571,6.18574 -7.0247,11.23256 19.46415,2.04293 34.59376,-16.37191 53.54878,-16.32209 1.63062,8.95473 13.21004,2.71916 18.43901,0.0214 -2.02967,-6.20709 -1.83702,-18.02335 -6.74262,-21.46857 m -442.41221,3.49505 c -27.49338,4.94005 -55.15876,8.80525 -82.70718,13.37514 -1.01827,2.75476 4.06621,1.02503 4.72672,2.11412 27.02551,2.47714 53.52814,11.20409 80.8564,8.96185 -1.20405,-6.49894 4.80927,-23.51862 -2.87594,-24.45111 M 176.62621,502.172 c -4.56159,-0.97518 -6.90087,2.3419 -9.15758,4.6055 -3.4814,-9.70214 -2.51128,8.09343 -1.88518,11.00478 11.15284,0.66199 22.84922,-1.58736 34.15343,-2.93983 2.76586,-1.63007 3.77037,0.85419 4.768,2.59104 8.17371,-4.60549 17.42073,-6.22133 26.44758,-7.98666 1.149,0.22067 1.40357,-1.97886 0.27521,-1.90056 -17.9161,-3.87232 -36.32759,-5.78712 -54.60146,-5.37427 m 549.69555,13.53888 c -17.52394,4.76921 -33.96767,16.14413 -46.39335,28.92847 15.89331,0.6264 33.67869,-3.53064 49.73026,-7.60227 11.84086,-0.96095 5.45602,-22.7285 -3.33691,-21.3262 m -448.02647,4.8831 c -26.83976,4.81904 -54.07169,6.76943 -81.18665,9.1398 -1.16964,0.84707 1.33476,1.17451 1.9127,1.30976 27.4521,1.85073 53.70704,13.53174 81.45498,11.80202 -1.29349,-6.03626 5.0432,-21.2835 -2.18103,-22.25158 m -83.75298,22.20175 c -7.68521,3.63741 -30.07346,-7.23212 -25.43618,8.42086 9.49471,0.5054 -6.28165,12.31454 0.95634,16.69936 13.70541,-5.23189 7.34121,15.27571 0.0551,18.97719 2.05032,22.08786 14.33151,42.60971 10.43731,65.40227 10.34098,18.50027 21.13605,36.77276 31.58023,55.23032 5.53858,-5.10377 11.34549,-11.51729 19.28527,-13.33956 24.11518,-7.0684 48.19597,-14.23645 72.58637,-20.25848 1.23155,-3.26014 -3.91486,-5.94371 -6.49493,-4.54142 -31.22247,0.91113 -64.07554,4.64108 -93.8669,-7.31042 -8.11868,-2.93271 -17.71658,-11.48882 -14.40032,-21.31197 6.04084,-1.04638 15.52867,-8.3212 18.53532,-1.66567 17.58586,-8.92625 37.16697,-11.90167 55.78486,-17.71015 2.35992,-0.39862 1.45861,-4.11433 -0.67426,-4.2211 -13.3614,-6.21421 -28.65614,-4.5272 -42.87067,-5.2319 -1.12148,-2.53409 -0.72931,-6.89756 -4.98128,-5.82271 -10.74692,-2.92559 -25.95909,-1.77955 -31.42887,-13.80224 -2.75897,-8.92625 5.84131,-14.71337 12.98986,-16.7136 22.42954,-8.05071 47.01945,-7.43854 68.988,-16.8346 4.67856,-1.48771 -0.75682,-4.10009 -2.76584,-4.91158 -17.13864,-3.69436 -34.81394,-4.85463 -51.88377,-8.85507 -5.07073,-2.69069 -10.77443,-3.29574 -16.39557,-2.19953 m 91.30057,9.15403 c -1.67878,7.97954 -7.73337,13.91614 -15.15026,16.30787 -19.01005,7.70192 -39.51313,9.69502 -59.14928,14.96962 -3.64652,1.43788 -8.84797,3.18185 -9.8112,7.45279 28.81437,10.79834 60.54597,10.10788 89.78692,19.63207 4.32766,1.65854 10.93269,5.04682 7.85034,10.96207 -25.7114,9.5313 -52.22778,16.90578 -78.11118,26.03135 -1.56182,0.98943 -5.26338,1.90768 -4.2107,4.49872 13.24443,3.7086 26.98424,4.74074 40.44195,7.23212 20.09714,-2.05006 39.98099,-6.24268 60.14693,-7.28906 -7.94666,-25.9673 -17.92987,-51.9417 -26.63335,-77.92324 -2.44248,-6.47046 -0.30961,-18.11588 -5.16017,-21.87431 m 447.90262,-0.0498 c -23.87438,8.89778 -49.39313,17.0268 -71.12088,29.67588 16.17541,0.51252 34.73826,-0.42709 51.82186,-0.5481 4.07997,2.14971 11.48997,7.09687 5.89635,11.78066 -26.55079,24.72161 -66.33913,16.09431 -96.45387,33.09976 28.2846,3.21032 58.09661,-11.59559 87.37198,-8.21443 9.38462,3.77978 1.9127,16.51429 -3.84605,20.15881 -25.67012,18.13013 -55.5991,29.38404 -85.70008,36.67311 -14.95073,0.59081 -32.06185,5.13224 -41.51528,17.48237 10.03825,2.78322 18.77613,-6.77656 27.83051,-10.35703 24.78945,-8.10053 50.8311,-11.2895 76.39802,-15.22588 0.11008,3.8296 3.68092,5.96507 5.05008,9.02591 -12.48073,19.24769 -39.68513,15.64586 -54.91107,28.52985 30.87157,-1.32399 57.60124,-19.38293 85.78952,-30.08162 -2.42184,-18.62841 1.96775,-37.97574 9.9144,-54.63951 4.0731,2.15682 -1.07331,12.00845 1.66502,15.90211 3.43323,-9.81603 10.98084,-18.67822 10.21025,-29.61182 -5.99955,1.18163 -5.21521,-6.03626 -5.24273,-9.73061 0.28209,-14.6066 0.0138,-29.19185 -0.87379,-43.76286 -0.74306,-0.4271 -1.50677,-0.48404 -2.28424,-0.1566 m -70.77686,47.04436 c -11.6207,3.3598 -27.5209,-0.67624 -36.78857,7.65209 11.5175,1.89345 28.89695,3.64454 38.46734,-6.78367 0.47474,-1.48771 -0.79122,-1.02503 -1.67877,-0.86842 m -12.95547,40.67355 c -15.26033,2.54832 -38.48797,1.19586 -43.66878,20.16593 16.32677,-1.11756 31.10549,-9.46724 47.13642,-12.25759 5.12576,-0.29184 8.47643,-4.7265 12.10919,-7.86563 -4.89183,-1.5589 -10.51298,-0.064 -15.57683,-0.0427 m -320.57721,41.22875 c -24.89954,5.06106 -48.8496,14.28628 -73.37073,21.02012 -3.94924,-1.50194 -5.1808,6.46336 -1.33475,5.66612 30.55507,-1.37382 62.91965,3.63741 90.73639,-11.52442 4.0731,-9.89433 -7.48568,-17.66032 -16.03091,-15.16182 m 378.98341,16.98405 c -8.28379,6.44199 -18.22571,10.37837 -28.69741,10.27872 -40.33877,7.63074 -76.14345,29.47658 -114.21861,44.22554 -2.65578,2.95407 5.24272,0.96097 6.28852,1.5589 39.348,-2.32055 82.15676,0.29184 117.52112,-20.88488 11.71702,-6.69113 22.93867,-22.08785 19.10638,-35.17828 m -92.75919,10.83394 c -15.70067,3.50929 -31.64215,7.50261 -45.89798,15.39673 0.70179,4.98276 7.77465,6.27827 11.68262,4.96852 13.64349,-5.64476 27.35578,-11.17562 40.9167,-17.00545 2.33928,-4.35635 -4.03182,-4.56989 -6.70134,-3.3598 m -245.97491,4.9187 c -4.66479,0.48404 -10.5749,-1.0535 -13.45084,3.81537 -5.49042,7.09687 -14.77872,11.03325 -20.33795,17.19763 16.76711,-2.4202 34.02272,-3.23167 50.033,-9.39606 -3.70845,-4.57702 -9.58415,-11.89455 -16.24421,-11.61694 m -57.48428,1.51618 c -30.10786,1.08909 -60.95879,1.04638 -90.49559,6.96874 3.88044,13.38939 17.97802,21.17673 26.86727,30.96429 29.00703,-11.41763 57.14715,-25.44766 86.45691,-36.24601 0.81186,-0.61929 3.3713,-0.85419 2.75897,-2.10699 -8.52461,-0.0356 -17.09048,-0.3488 -25.58756,0.41997 m 94.27972,14.80592 c -3.30939,0.26337 -5.29777,3.68724 -8.4902,4.29228 -24.61056,5.52375 -49.15232,11.36781 -73.76288,16.84884 -21.70711,6.2071 -45.54021,2.27072 -66.18088,12.7701 3.48138,4.69091 9.74927,7.46703 15.43921,6.66978 39.23792,-7.42431 78.13871,-18.40062 118.32611,-18.40062 13.89118,-3.41675 31.55271,-6.07896 39.49937,-19.42563 -7.32744,-3.69437 -16.75335,-3.08931 -24.83073,-2.75475 m 8.22187,27.1062 c -39.38241,4.62685 -79.59044,9.36759 -116.66109,24.59347 -10.14145,2.99677 -10.58179,16.557 -4.23134,23.56133 6.88023,5.23901 15.59747,3.84384 23.46845,2.8117 6.75638,-2.52697 2.32551,6.23557 5.00192,8.32833 9.39151,0.56234 15.969,-8.38528 25.0165,-9.4886 4.4515,-1.2101 9.27454,1.50194 13.46459,-0.98231 31.8004,-13.68124 63.66961,-27.22011 95.47,-40.87287 -10.16208,-2.56967 -24.40415,3.53776 -36.09365,2.01447 -3.61901,-5.32444 5.91011,-13.86631 -5.43538,-9.96552 m 211.22977,3.60894 c -13.35451,3.01101 -30.13538,-1.17451 -41.17126,8.29273 16.14789,11.15426 34.43553,-2.47002 50.34261,-7.44566 -0.76371,-3.21744 -6.77015,-0.10677 -9.17135,-0.84707 m 26.0967,9.89434 c -6.32293,3.10354 -12.93482,5.45967 -19.63616,7.50972 -54.95235,29.04236 -113.41363,50.67466 -173.38855,65.55887 -4.92623,-1.23145 -3.70843,9.34624 1.29349,6.21421 56.85817,-3.06084 114.88599,-15.95906 163.38469,-48.02667 11.6895,-8.00089 22.28506,-18.13724 29.66066,-30.53008 0.75682,-1.38805 -0.46098,-1.00366 -1.31413,-0.72605 m -170.58141,4.28517 c -13.327,1.00366 -25.60132,9.86586 -36.03862,15.98041 14.81313,-2.74051 29.94962,-6.36368 43.01517,-14.4144 0.33025,-3.03237 -5.46978,-1.53754 -6.97655,-1.56601 m 31.29126,14.1795 c -46.75801,3.67301 -91.41067,20.45067 -135.74683,35.19252 -4.85056,1.48058 -13.69853,5.97931 -7.36185,11.38204 18.01243,8.78389 37.68299,-1.85074 55.65414,-6.27827 28.49101,-9.18963 57.95901,-17.13357 83.98691,-32.64419 2.03654,-1.30263 7.03847,-6.4847 3.46763,-7.6521 m 39.63697,6.45623 c -14.76496,6.27828 -29.4336,12.85552 -44.18479,19.17651 -0.79811,0.28473 -2.88283,1.84362 -0.89444,1.93616 17.14552,-0.0356 32.58475,-9.28218 46.46216,-18.77077 2.73833,-1.53041 2.74521,-4.11434 -1.38293,-2.3419 z"
     style="stroke-width:0.699821" />
</svg>
