<?xml version="1.0" encoding="UTF-8" standalone="no"?>
<svg
   version="1.0"
   viewBox="0 0 597.000000 938.000000"
   id="svg8"
   sodipodi:docname="bR.svg"
   inkscape:version="1.1.1 (3bf5ae0d25, 2021-09-20)"
   xmlns:inkscape="http://www.inkscape.org/namespaces/inkscape"
   xmlns:sodipodi="http://sodipodi.sourceforge.net/DTD/sodipodi-0.dtd"
   xmlns="http://www.w3.org/2000/svg"
   xmlns:svg="http://www.w3.org/2000/svg"
   xmlns:rdf="http://www.w3.org/1999/02/22-rdf-syntax-ns#"
   xmlns:cc="http://creativecommons.org/ns#"
   xmlns:dc="http://purl.org/dc/elements/1.1/">
  <defs
     id="defs12" />
  <sodipodi:namedview
     id="namedview10"
     pagecolor="#ffffff"
     bordercolor="#666666"
     borderopacity="1.0"
     inkscape:pageshadow="2"
     inkscape:pageopacity="0.0"
     inkscape:pagecheckerboard="0"
     showgrid="false"
     inkscape:zoom="0.86567164"
     inkscape:cx="298.61207"
     inkscape:cy="469.57759"
     inkscape:window-width="1920"
     inkscape:window-height="1001"
     inkscape:window-x="-9"
     inkscape:window-y="-9"
     inkscape:window-maximized="1"
     inkscape:current-layer="svg8" />
  <g
     transform="matrix(0.08716825,0,0,-0.08498536,36.61204,881.18991)"
     fill="#000000"
     id="g4">
    <path
       d="m 3076,8775 c -17,-6 -42,-8 -56,-5 -14,4 -30,3 -36,-1 -5,-5 -39,-11 -74,-14 -34,-3 -68,-9 -75,-15 -11,-9 -148,-55 -285,-96 -30,-9 -74,-25 -97,-35 -24,-11 -50,-19 -58,-19 -8,0 -15,-4 -15,-10 0,-5 -8,-10 -17,-10 -10,0 -36,-16 -58,-35 -53,-47 -59,-51 -92,-72 -43,-26 -124,-97 -217,-188 -45,-44 -103,-91 -129,-104 -54,-28 -255,-228 -282,-281 -10,-19 -30,-46 -45,-60 -16,-14 -33,-41 -39,-60 -6,-19 -27,-53 -46,-74 -19,-22 -52,-65 -73,-95 -20,-31 -40,-57 -44,-59 -5,-2 -8,-10 -8,-17 0,-8 -6,-18 -14,-22 -8,-4 -17,-19 -19,-33 -7,-39 -50,-114 -85,-146 -20,-20 -35,-47 -42,-79 -6,-27 -22,-60 -36,-74 -14,-14 -34,-44 -44,-67 -11,-23 -46,-91 -79,-152 -33,-61 -66,-135 -74,-164 -22,-77 -41,-125 -59,-145 -23,-26 -68,-124 -62,-134 3,-5 1,-17 -5,-26 -5,-10 -11,-40 -14,-68 -11,-96 -30,-160 -58,-199 -16,-22 -29,-50 -29,-62 0,-13 -4,-25 -9,-28 -8,-5 -26,-101 -23,-118 1,-4 -3,-20 -9,-35 -6,-15 -15,-64 -20,-108 -5,-44 -20,-116 -34,-159 -14,-44 -23,-81 -20,-84 2,-3 -1,-14 -8,-26 -12,-21 -15,-62 -19,-218 -1,-43 -6,-78 -11,-78 -4,0 -5,-4 -2,-10 3,-5 0,-20 -6,-32 -15,-29 -19,-110 -23,-589 -2,-212 -7,-426 -11,-476 -4,-57 -3,-104 3,-125 6,-18 13,-55 16,-83 3,-27 10,-93 16,-145 6,-52 11,-111 11,-130 0,-20 10,-67 24,-104 14,-38 25,-91 25,-117 0,-60 40,-220 69,-276 11,-23 21,-49 21,-58 0,-8 16,-47 35,-85 19,-38 35,-77 35,-86 0,-17 27,-71 48,-92 7,-8 26,-44 43,-80 17,-37 39,-76 49,-87 16,-18 62,-106 120,-230 24,-49 65,-110 125,-183 38,-47 51,-67 74,-118 11,-23 24,-45 30,-48 6,-4 23,-32 37,-61 14,-30 39,-68 55,-84 16,-16 29,-34 29,-40 0,-5 10,-21 23,-34 45,-48 97,-120 97,-135 0,-8 20,-37 45,-63 25,-26 45,-58 45,-69 0,-20 37,-62 198,-224 28,-30 52,-58 52,-64 0,-6 8,-13 19,-17 10,-3 31,-26 47,-50 15,-25 33,-45 40,-45 6,0 24,-16 40,-35 15,-19 33,-35 40,-35 7,0 24,-11 38,-25 14,-14 32,-25 41,-25 8,0 15,-4 15,-9 0,-5 8,-12 18,-15 33,-12 72,-37 72,-46 0,-15 69,-40 112,-40 21,0 55,-7 75,-15 19,-8 42,-15 50,-15 7,0 30,-8 51,-17 20,-9 87,-23 147,-30 132,-16 105,-14 310,-16 83,0 186,13 210,27 11,7 40,18 65,26 25,7 54,22 66,32 11,10 26,18 32,18 6,0 26,9 44,20 18,11 39,20 47,20 7,0 42,22 77,50 39,30 80,53 106,59 24,6 48,18 53,27 6,9 21,26 34,38 14,12 41,35 60,52 20,17 55,39 78,50 23,10 43,25 43,32 0,6 5,12 11,12 6,0 33,23 60,50 27,28 55,50 63,50 8,0 28,19 45,43 16,24 90,106 164,183 166,171 163,167 181,201 8,15 34,49 58,74 24,25 53,66 65,90 13,24 39,62 58,84 19,22 35,42 35,46 0,3 16,23 35,45 20,21 63,93 96,159 70,140 116,226 147,275 30,50 112,220 112,234 0,6 6,20 13,31 17,26 47,106 47,127 0,29 40,106 70,135 34,32 46,63 55,146 4,32 20,91 35,130 16,40 32,95 35,122 3,28 10,76 16,109 6,32 9,73 8,90 -1,17 10,56 24,86 15,30 27,67 27,82 0,15 4,29 9,32 5,4 9,26 9,51 0,24 4,50 8,56 4,7 8,44 9,84 2,39 6,81 9,93 13,40 28,178 26,247 -1,71 23,354 41,480 22,156 27,219 20,234 -4,9 -7,45 -6,81 1,36 -3,73 -8,83 -5,10 -11,30 -13,44 -3,13 -11,50 -19,81 -10,38 -15,107 -15,212 0,150 -11,246 -43,375 -8,33 -18,84 -21,113 -4,29 -15,70 -26,90 -10,20 -24,73 -30,117 -7,44 -19,105 -27,135 -8,30 -21,82 -28,115 -7,33 -24,101 -38,150 -14,50 -28,107 -31,127 -4,21 -14,44 -22,53 -9,8 -13,15 -11,15 7,0 -41,191 -51,203 -30,38 -72,134 -67,154 3,12 1,25 -5,28 -5,3 -10,14 -10,24 0,10 -9,29 -19,43 -11,13 -23,38 -27,54 -3,16 -15,43 -24,59 -10,17 -24,50 -31,75 -7,25 -23,61 -35,81 -13,21 -37,72 -55,115 -18,44 -38,86 -45,94 -29,36 -54,93 -60,140 -5,41 -11,53 -29,60 -13,5 -24,13 -26,17 -2,5 -26,24 -53,43 -28,19 -58,43 -68,53 -10,9 -24,17 -32,17 -22,0 -116,61 -116,76 0,7 -12,13 -27,12 -16,0 -101,16 -189,36 l -162,35 -50,50 c -50,49 -99,81 -125,81 -7,0 -29,14 -48,31 -52,47 -73,59 -97,54 -12,-2 -41,3 -63,11 -23,7 -58,14 -79,14 -20,0 -57,11 -82,24 -25,13 -65,28 -89,32 -62,12 -246,11 -283,-1 z m 84,-687 c 53,-9 71,-17 96,-45 17,-18 36,-33 42,-33 7,0 12,-7 12,-15 0,-8 5,-15 10,-15 6,0 10,-7 10,-15 0,-8 19,-27 43,-42 23,-14 56,-39 72,-55 90,-84 109,-92 249,-103 103,-8 216,-27 216,-36 0,-4 13,-10 29,-14 15,-3 38,-15 49,-25 12,-11 31,-20 42,-20 26,0 68,-44 77,-79 3,-14 9,-30 13,-36 3,-5 15,-32 25,-60 10,-27 27,-60 38,-73 21,-23 25,-34 31,-84 2,-14 16,-46 33,-71 16,-25 42,-83 58,-129 15,-46 34,-92 41,-103 8,-11 14,-25 14,-33 0,-7 9,-32 21,-55 11,-23 22,-51 24,-62 10,-51 24,-98 33,-104 18,-11 29,-76 29,-171 0,-61 4,-95 12,-98 6,-2 8,-8 5,-13 -3,-6 1,-25 10,-43 32,-67 51,-161 62,-305 4,-47 13,-96 20,-109 7,-14 10,-30 8,-36 -3,-7 2,-28 9,-47 8,-20 15,-80 16,-144 1,-60 6,-124 12,-141 13,-41 16,-81 23,-254 4,-80 9,-163 12,-186 2,-23 -1,-63 -7,-90 -7,-27 -13,-87 -14,-134 -5,-191 -17,-376 -26,-397 -22,-55 -27,-71 -38,-123 -6,-30 -11,-62 -11,-70 3,-86 -2,-129 -24,-194 -14,-41 -26,-84 -26,-96 0,-12 -4,-29 -9,-38 -5,-9 -11,-34 -14,-55 -3,-20 -10,-43 -16,-50 -5,-7 -11,-47 -12,-88 -1,-63 -7,-89 -44,-175 -24,-56 -46,-117 -50,-135 -3,-19 -13,-49 -22,-67 -8,-18 -12,-40 -9,-48 3,-8 2,-14 -3,-14 -5,0 -21,-30 -37,-66 -15,-37 -40,-83 -54,-103 -14,-20 -34,-54 -44,-76 -34,-76 -78,-160 -95,-180 -9,-11 -26,-38 -37,-60 -10,-22 -31,-53 -46,-69 -14,-15 -29,-40 -33,-55 -7,-27 -30,-60 -84,-121 -17,-19 -31,-38 -31,-41 0,-14 -72,-114 -91,-127 -10,-7 -19,-18 -19,-23 0,-11 -35,-63 -61,-89 -9,-9 -24,-38 -35,-64 -12,-31 -27,-49 -41,-52 -12,-3 -39,-27 -60,-52 -52,-64 -90,-102 -102,-102 -5,0 -52,-42 -103,-93 -142,-141 -190,-175 -255,-184 -26,-3 -54,-14 -65,-25 -10,-10 -21,-18 -24,-18 -3,0 -30,-11 -60,-25 -30,-14 -61,-25 -69,-25 -7,0 -21,-7 -29,-16 -26,-26 -121,-54 -182,-54 -68,0 -184,20 -184,32 0,4 -14,8 -31,8 -25,0 -43,13 -95,66 -35,36 -73,82 -84,104 -11,21 -28,41 -37,44 -10,3 -26,19 -35,36 -10,17 -25,30 -36,30 -12,0 -22,9 -26,23 -3,12 -18,36 -33,54 -58,65 -73,85 -73,93 0,5 -9,14 -20,20 -11,6 -20,17 -20,25 0,8 -5,15 -10,15 -6,0 -10,6 -8,14 2,8 -11,27 -28,43 -17,15 -45,51 -64,78 -18,28 -41,62 -51,76 -9,14 -26,45 -38,70 -43,90 -82,149 -98,149 -7,0 -13,9 -13,20 0,11 -4,20 -9,20 -5,0 -16,17 -24,38 -9,21 -27,52 -40,68 -14,16 -31,49 -38,74 -7,25 -18,52 -24,60 -7,8 -25,47 -40,85 -15,39 -34,84 -43,100 -9,17 -17,41 -19,55 -2,14 -6,32 -10,40 -9,21 -9,21 -17,65 -5,22 -21,78 -36,125 -19,57 -30,118 -35,185 -3,55 -10,104 -16,110 -5,5 -9,30 -9,56 0,26 -4,50 -9,54 -5,3 -10,105 -10,234 0,126 -1,232 -2,237 -1,5 -1,11 0,14 1,3 2,37 2,75 0,39 0,88 1,110 1,22 0,60 -1,85 -7,189 -8,307 -1,315 4,6 10,39 14,75 4,36 12,83 17,104 6,22 11,75 11,119 0,44 11,136 23,206 22,116 31,157 71,297 8,28 14,60 14,72 0,12 5,22 10,22 6,0 10,20 10,44 0,24 7,60 16,81 8,20 13,40 10,43 -3,3 -1,11 6,19 6,7 8,16 5,19 -3,3 1,21 9,40 8,19 11,34 7,34 -5,0 -1,6 8,13 9,7 20,28 24,47 4,19 13,46 20,60 7,14 17,44 21,65 4,22 15,51 25,64 11,13 19,29 19,36 0,16 48,172 65,210 7,17 26,59 43,95 44,94 62,137 62,146 0,26 98,201 130,233 22,22 45,57 52,81 7,23 19,45 26,47 6,3 12,14 12,24 0,21 28,65 69,112 14,15 21,27 17,27 -5,0 19,29 52,64 33,35 72,81 88,102 16,22 54,64 84,95 30,32 71,74 91,96 51,53 88,85 123,107 17,10 43,30 58,45 14,14 41,38 60,53 18,15 49,41 68,58 19,16 41,30 48,30 7,0 15,7 18,15 4,8 14,15 23,15 9,0 22,5 27,10 35,35 158,42 294,18 z"
       id="path2" />
  </g>
  <metadata
     id="metadata6">
    <rdf:RDF>
      <cc:Work>
        <dc:format>image/svg+xml</dc:format>
        <dc:type
           rdf:resource="http://purl.org/dc/dcmitype/StillImage" />
        <cc:license
           rdf:resource="http://creativecommons.org/licenses/publicdomain/" />
        <dc:publisher>
          <cc:Agent
             rdf:about="http://openclipart.org/">
            <dc:title>Openclipart</dc:title>
          </cc:Agent>
        </dc:publisher>
      </cc:Work>
      <cc:License
         rdf:about="http://creativecommons.org/licenses/publicdomain/">
        <cc:permits
           rdf:resource="http://creativecommons.org/ns#Reproduction" />
        <cc:permits
           rdf:resource="http://creativecommons.org/ns#Distribution" />
        <cc:permits
           rdf:resource="http://creativecommons.org/ns#DerivativeWorks" />
      </cc:License>
    </rdf:RDF>
  </metadata>
</svg>
