<?xml version="1.0" encoding="UTF-8" standalone="no"?>
<svg
   id="svg2"
   viewBox="0 0 200 200"
   version="1.0"
   sodipodi:docname="wB.svg"
   inkscape:version="1.1.1 (3bf5ae0d25, 2021-09-20)"
   xmlns:inkscape="http://www.inkscape.org/namespaces/inkscape"
   xmlns:sodipodi="http://sodipodi.sourceforge.net/DTD/sodipodi-0.dtd"
   xmlns:xlink="http://www.w3.org/1999/xlink"
   xmlns="http://www.w3.org/2000/svg"
   xmlns:svg="http://www.w3.org/2000/svg"
   xmlns:rdf="http://www.w3.org/1999/02/22-rdf-syntax-ns#"
   xmlns:cc="http://creativecommons.org/ns#"
   xmlns:dc="http://purl.org/dc/elements/1.1/">
  <sodipodi:namedview
     id="namedview30"
     pagecolor="#ffffff"
     bordercolor="#666666"
     borderopacity="1.0"
     inkscape:pageshadow="2"
     inkscape:pageopacity="0.0"
     inkscape:pagecheckerboard="0"
     showgrid="false"
     inkscape:zoom="2.03"
     inkscape:cx="-31.773399"
     inkscape:cy="80.541872"
     inkscape:window-width="1920"
     inkscape:window-height="1001"
     inkscape:window-x="-9"
     inkscape:window-y="-9"
     inkscape:window-maximized="1"
     inkscape:current-layer="svg2" />
  <defs
     id="defs4">
    <linearGradient
       id="linearGradient3305"
       y2="500.37"
       gradientUnits="userSpaceOnUse"
       x2="444.54"
       y1="500.37"
       x1="364.96">
      <stop
         id="stop3301"
         stop-color="#f00"
         offset="0" />
      <stop
         id="stop3339"
         stop-color="#f30000"
         offset=".88889" />
      <stop
         id="stop3303"
         stop-color="#e70000"
         offset="1" />
    </linearGradient>
    <radialGradient
       id="radialGradient3363"
       gradientUnits="userSpaceOnUse"
       cy="100"
       cx="100"
       r="100">
      <stop
         id="stop3359"
         stop-color="#fff"
         stop-opacity="0"
         offset="0" />
      <stop
         id="stop3365"
         stop-color="#fff"
         stop-opacity="0"
         offset=".80556" />
      <stop
         id="stop3361"
         stop-color="#b00000"
         stop-opacity=".73451"
         offset="1" />
    </radialGradient>
  </defs>
  <g
     id="layer1"
     transform="matrix(0.76355346,0,0,0.79064218,-188.12991,-256.03425)">
    <path
       id="path3168"
       d="m 378,453.77 c 0,0 -13.75,8.52 -12.33,23.79 1.42,15.25 26.72,39.51 35.33,50.73 5.08,6.62 7.41,13.49 8.51,18.06 12.92,-4.43 24.6,-11.54 34.42,-20.62 -4.16,-3.98 -11.17,-10.44 -16.67,-14.06 -8.18,-5.39 -33.61,-11.74 -47.78,-25.13 C 365.7,473.52 378,453.77 378,453.77 Z"
       fill="url(#linearGradient3305)"
       fill-rule="evenodd"
       style="fill:url(#linearGradient3305)" />
    <path
       id="path3223"
       stroke-linejoin="round"
       d="m 420,482.36 a 70,70 0 1 1 -140,0 70,70 0 1 1 140,0 z"
       transform="matrix(1.3889,0,0,1.3889,-108.11,-215.59)"
       stroke="#ff0000"
       stroke-width="4"
       fill="#ffffff" />
    <path
       id="use3230"
       d="m 378,453.46 c 0,0 -13.75,8.83 -12.33,24.1 1.42,15.25 26.72,39.51 35.33,50.73 5.08,6.62 7.41,13.49 8.51,18.06 12.92,-4.43 24.6,-11.54 34.42,-20.62 -4.16,-3.98 -11.17,-10.44 -16.67,-14.06 -8.18,-5.39 -33.61,-11.74 -47.78,-25.13 C 365.7,473.52 378,453.46 378,453.46 Z"
       fill="#ff0000"
       fill-rule="evenodd" />
    <path
       id="path3291"
       opacity="0"
       d="m 93.178,199.59 c -1.111,-0.11 -4.52,-0.56 -7.576,-0.99 C 46.006,192.96 13.031,163.17 3.326,124.25 -0.6964,108.13 -0.5412,89.4 3.7425,74.009 8.5261,56.821 17.3105,41.746 29.6305,29.583 c 6.008,-5.93 9.008,-8.397 15.42,-12.677 26.251,-17.523 59.78,-21.405 89.54,-10.367 23.87,8.851 43.44,26.544 54.93,49.658 11.78,23.69 13.35,52.673 4.21,77.653 -5.15,14.06 -12.74,25.97 -23.29,36.52 -15.08,15.08 -33.67,24.6 -54.79,28.06 -5.62,0.92 -18.348,1.58 -22.472,1.16 z m 20.692,-6.07 c 4.73,-0.69 11.02,-2.09 14.83,-3.3 2.06,-0.66 1.99,-1.17 -1.13,-7.75 -2.57,-5.43 -4.84,-8.5 -15.09,-20.33 C 102.83,151 98.658,145.8 94.947,140.29 c -6.003,-8.92 -7.809,-13.91 -7.485,-20.69 0.275,-5.75 2.422,-10.47 6.968,-15.33 1.736,-1.86 3.012,-3.37 2.835,-3.37 -1.034,0 -7.474,3.36 -9.806,5.13 -3.841,2.9 -5.401,4.72 -7.29,8.5 -1.565,3.14 -1.638,3.55 -1.628,9.09 0.017,9.16 2.405,17.81 9.991,36.17 5.884,14.25 6.508,16.71 7.219,28.48 0.197,3.26 0.596,5.99 0.909,6.21 0.738,0.53 10.88,-0.03 17.21,-0.96 z M 59.709,180.51 c 2.969,-7.02 3.307,-9.2 5.199,-33.65 1.222,-15.78 2.313,-22.89 4.616,-30.05 1.861,-5.8 2.946,-7.68 6.425,-11.14 4.668,-4.64 10.067,-6.755 17.461,-6.836 l 3.809,-0.042 -2.627,-1.243 C 88.18,94.516 79.354,94.08 73.997,96.533 c -5.703,2.61 -12.182,10.537 -17.818,21.787 -1.391,2.78 -4.578,9.94 -7.083,15.92 -2.504,5.98 -5.073,11.77 -5.709,12.88 -1.56,2.71 -6.967,9.67 -10.377,13.36 l -2.779,3 1.072,1.45 c 1.339,1.81 7.283,7.18 11.617,10.49 4.387,3.35 13.659,8.88 14.58,8.7 0.406,-0.07 1.4,-1.7 2.209,-3.61 z m 109.08,-15.6 c 2.16,-2.29 5.44,-6.24 7.29,-8.77 3.77,-5.16 8.87,-13.78 8.61,-14.57 -0.26,-0.77 -7.8,-3.68 -11.76,-4.54 -1.92,-0.42 -10.76,-1.33 -19.65,-2.03 -19.82,-1.56 -26.79,-2.49 -34.6,-4.65 -12.36,-3.41 -19.093,-11.95 -19.231,-24.38 l -0.042,-3.81 -1.242,2.62 c -3.037,6.42 -3.49,15.2 -1.057,20.51 3.712,8.11 15.982,16.2 38.472,25.36 12.42,5.05 16.94,7.84 25.28,15.57 1.66,1.55 3.25,2.83 3.52,2.84 0.27,0.01 2.26,-1.85 4.41,-4.15 z M 16.439,127.18 c 5.873,-2.72 8.004,-4.29 21.029,-15.47 17.167,-14.747 24.567,-20.096 32.298,-23.352 2.824,-1.189 3.878,-1.352 8.766,-1.352 5.341,0 5.703,0.071 9.378,1.826 2.443,1.167 5.041,2.965 7.198,4.983 1.856,1.736 3.374,3.002 3.374,2.813 0,-0.189 -0.763,-1.977 -1.696,-3.973 -3.17,-6.78 -7.614,-11.448 -12.951,-13.603 -2.317,-0.936 -3.7,-1.115 -8.334,-1.08 -9.035,0.068 -16.363,2.083 -35.102,9.657 -6.529,2.638 -12.893,5.094 -14.143,5.457 -3.258,0.948 -8.49,1.666 -15.026,2.062 l -5.6818,0.344 v 6.308 c 0,8.1 1.6093,18.39 4.1094,26.26 0.6204,1.96 0.6824,1.95 6.7814,-0.88 z m 119.42,-7.77 c 6.68,-1.61 13.27,-3.91 24.63,-8.6 13.92,-5.75 16.43,-6.37 28.78,-7.18 l 5.18,-0.34 -0.01,-5.868 c -0.02,-7.727 -2.24,-21.047 -4.53,-27.067 l -0.49,-1.274 -2.54,1 c -7.5,2.959 -10.66,5.159 -24.12,16.815 -11.14,9.647 -16.35,13.824 -21.86,17.534 -8.91,6 -13.9,7.81 -20.68,7.48 -5.78,-0.27 -10.47,-2.41 -15.41,-7.03 -3.8,-3.55 -3.94,-3.26 -1.15,2.33 3.47,6.93 8.97,11.87 14.89,13.37 3.12,0.79 11.5,0.23 17.31,-1.17 z m -9.96,-17.13 c 8.05,-3.707 15.33,-14.551 24.43,-36.392 6.26,-15.032 7.56,-17.237 15.54,-26.307 l 3.51,-3.989 -4.02,-3.867 c -6.88,-6.625 -21.24,-16.497 -23.39,-16.073 -0.92,0.183 -3.38,6.421 -4.35,11.025 -0.42,2.008 -1,6.403 -1.28,9.767 -0.28,3.364 -0.95,11.457 -1.49,17.985 -1.84,22.463 -4.4,32.049 -10.15,38.137 -4.61,4.869 -8.86,6.7 -16.87,7.257 l -5.06,0.347 2.02,0.91 c 7.05,3.17 15.76,3.66 21.11,1.2 z m -18.07,-6.566 c 5.82,-2.912 9.87,-6.851 12.31,-11.991 1.19,-2.501 1.32,-3.355 1.31,-8.586 -0.01,-9.158 -2.4,-17.805 -9.99,-36.168 -5.83,-14.107 -6.46,-16.585 -7.22,-28.355 l -0.33,-5.1773 h -5.224 c -6.618,0 -15.005,1.1448 -22.376,3.0544 -3.166,0.8202 -5.837,1.4912 -5.935,1.4912 -1.03,0 2.546,8.1867 5.477,12.539 0.973,1.444 6.292,7.893 11.82,14.331 14.738,17.167 20.088,24.566 23.348,32.298 1.19,2.823 1.35,3.878 1.35,8.765 0,5.341 -0.07,5.704 -1.82,9.379 -1.18,2.468 -2.97,5.044 -5.06,7.271 -3.55,3.799 -3.26,3.943 2.34,1.149 z m -5,-4.162 c 1.18,-3.415 1.4,-4.901 1.43,-9.596 0.03,-5.022 -0.1,-5.837 -1.34,-8.476 C 99.107,65.341 87.378,57.565 65.398,48.602 51.986,43.133 49.953,41.942 41.452,34.572 l -5.257,-4.558 -4.102,4.253 c -2.256,2.339 -5.564,6.178 -7.352,8.532 -3.552,4.677 -9.093,13.5 -9.093,14.478 0,0.724 6.725,3.406 11.235,4.482 1.738,0.414 10.433,1.321 19.322,2.015 17.822,1.392 25.111,2.27 31.567,3.804 9.351,2.222 14.232,4.987 18.304,10.367 2.671,3.529 3.963,7.598 4.293,13.513 0.15,2.726 0.45,4.771 0.67,4.546 0.22,-0.226 1.03,-2.23 1.79,-4.452 z"
       stroke-width="4"
       transform="translate(278,354.36)" />
    <path
       id="path3293"
       opacity="0"
       d="m 93.178,199.59 c -1.111,-0.11 -4.52,-0.56 -7.576,-0.99 C 46.006,192.96 13.031,163.17 3.326,124.25 -0.6964,108.13 -0.5412,89.4 3.7425,74.009 8.5261,56.821 17.3105,41.746 29.6305,29.583 c 6.008,-5.93 9.008,-8.397 15.42,-12.677 26.251,-17.523 59.78,-21.405 89.54,-10.367 23.87,8.851 43.44,26.544 54.93,49.658 11.78,23.69 13.35,52.673 4.21,77.653 -5.15,14.06 -12.74,25.97 -23.29,36.52 -15.08,15.08 -33.67,24.6 -54.79,28.06 -5.62,0.92 -18.348,1.58 -22.472,1.16 z m 20.692,-6.07 c 4.73,-0.69 11.02,-2.09 14.83,-3.3 2.06,-0.66 1.99,-1.17 -1.13,-7.75 -2.57,-5.43 -4.84,-8.5 -15.09,-20.33 C 102.83,151 98.658,145.8 94.947,140.29 c -6.003,-8.92 -7.809,-13.91 -7.485,-20.69 0.275,-5.75 2.422,-10.47 6.968,-15.33 1.736,-1.86 3.012,-3.37 2.835,-3.37 -1.034,0 -7.474,3.36 -9.806,5.13 -3.841,2.9 -5.401,4.72 -7.29,8.5 -1.565,3.14 -1.638,3.55 -1.628,9.09 0.017,9.16 2.405,17.81 9.991,36.17 5.884,14.25 6.508,16.71 7.219,28.48 0.197,3.26 0.596,5.99 0.909,6.21 0.738,0.53 10.88,-0.03 17.21,-0.96 z M 59.709,180.51 c 2.969,-7.02 3.307,-9.2 5.199,-33.65 1.222,-15.78 2.313,-22.89 4.616,-30.05 1.861,-5.8 2.946,-7.68 6.425,-11.14 4.668,-4.64 10.067,-6.755 17.461,-6.836 l 3.809,-0.042 -2.627,-1.243 C 88.18,94.516 79.354,94.08 73.997,96.533 c -5.703,2.61 -12.182,10.537 -17.818,21.787 -1.391,2.78 -4.578,9.94 -7.083,15.92 -2.504,5.98 -5.073,11.77 -5.709,12.88 -1.56,2.71 -6.967,9.67 -10.377,13.36 l -2.779,3 1.072,1.45 c 1.339,1.81 7.283,7.18 11.617,10.49 4.387,3.35 13.659,8.88 14.58,8.7 0.406,-0.07 1.4,-1.7 2.209,-3.61 z m 109.08,-15.6 c 2.16,-2.29 5.44,-6.24 7.29,-8.77 3.77,-5.16 8.87,-13.78 8.61,-14.57 -0.26,-0.77 -7.8,-3.68 -11.76,-4.54 -1.92,-0.42 -10.76,-1.33 -19.65,-2.03 -19.82,-1.56 -26.79,-2.49 -34.6,-4.65 -12.36,-3.41 -19.093,-11.95 -19.231,-24.38 l -0.042,-3.81 -1.242,2.62 c -3.037,6.42 -3.49,15.2 -1.057,20.51 3.712,8.11 15.982,16.2 38.472,25.36 12.42,5.05 16.94,7.84 25.28,15.57 1.66,1.55 3.25,2.83 3.52,2.84 0.27,0.01 2.26,-1.85 4.41,-4.15 z M 16.439,127.18 c 5.873,-2.72 8.004,-4.29 21.029,-15.47 17.167,-14.747 24.567,-20.096 32.298,-23.352 2.824,-1.189 3.878,-1.352 8.766,-1.352 5.341,0 5.703,0.071 9.378,1.826 2.443,1.167 5.041,2.965 7.198,4.983 1.856,1.736 3.374,3.002 3.374,2.813 0,-0.189 -0.763,-1.977 -1.696,-3.973 -3.17,-6.78 -7.614,-11.448 -12.951,-13.603 -2.317,-0.936 -3.7,-1.115 -8.334,-1.08 -9.035,0.068 -16.363,2.083 -35.102,9.657 -6.529,2.638 -12.893,5.094 -14.143,5.457 -3.258,0.948 -8.49,1.666 -15.026,2.062 l -5.6818,0.344 v 6.308 c 0,8.1 1.6093,18.39 4.1094,26.26 0.6204,1.96 0.6824,1.95 6.7814,-0.88 z m 119.42,-7.77 c 6.68,-1.61 13.27,-3.91 24.63,-8.6 13.92,-5.75 16.43,-6.37 28.78,-7.18 l 5.18,-0.34 -0.01,-5.868 c -0.02,-7.727 -2.24,-21.047 -4.53,-27.067 l -0.49,-1.274 -2.54,1 c -7.5,2.959 -10.66,5.159 -24.12,16.815 -11.14,9.647 -16.35,13.824 -21.86,17.534 -8.91,6 -13.9,7.81 -20.68,7.48 -5.78,-0.27 -10.47,-2.41 -15.41,-7.03 -3.8,-3.55 -3.94,-3.26 -1.15,2.33 3.47,6.93 8.97,11.87 14.89,13.37 3.12,0.79 11.5,0.23 17.31,-1.17 z m -9.96,-17.13 c 8.05,-3.707 15.33,-14.551 24.43,-36.392 6.26,-15.032 7.56,-17.237 15.54,-26.307 l 3.51,-3.989 -4.02,-3.867 c -6.88,-6.625 -21.24,-16.497 -23.39,-16.073 -0.92,0.183 -3.38,6.421 -4.35,11.025 -0.42,2.008 -1,6.403 -1.28,9.767 -0.28,3.364 -0.95,11.457 -1.49,17.985 -1.84,22.463 -4.4,32.049 -10.15,38.137 -4.61,4.869 -8.86,6.7 -16.87,7.257 l -5.06,0.347 2.02,0.91 c 7.05,3.17 15.76,3.66 21.11,1.2 z m -18.07,-6.566 c 5.82,-2.912 9.87,-6.851 12.31,-11.991 1.19,-2.501 1.32,-3.355 1.31,-8.586 -0.01,-9.158 -2.4,-17.805 -9.99,-36.168 -5.83,-14.107 -6.46,-16.585 -7.22,-28.355 l -0.33,-5.1773 h -5.224 c -6.618,0 -15.005,1.1448 -22.376,3.0544 -3.166,0.8202 -5.837,1.4912 -5.935,1.4912 -1.03,0 2.546,8.1867 5.477,12.539 0.973,1.444 6.292,7.893 11.82,14.331 14.738,17.167 20.088,24.566 23.348,32.298 1.19,2.823 1.35,3.878 1.35,8.765 0,5.341 -0.07,5.704 -1.82,9.379 -1.18,2.468 -2.97,5.044 -5.06,7.271 -3.55,3.799 -3.26,3.943 2.34,1.149 z m -5,-4.162 c 1.18,-3.415 1.4,-4.901 1.43,-9.596 0.03,-5.022 -0.1,-5.837 -1.34,-8.476 C 99.107,65.341 87.378,57.565 65.398,48.602 51.986,43.133 49.953,41.942 41.452,34.572 l -5.257,-4.558 -4.102,4.253 c -2.256,2.339 -5.564,6.178 -7.352,8.532 -3.552,4.677 -9.093,13.5 -9.093,14.478 0,0.724 6.725,3.406 11.235,4.482 1.738,0.414 10.433,1.321 19.322,2.015 17.822,1.392 25.111,2.27 31.567,3.804 9.351,2.222 14.232,4.987 18.304,10.367 2.671,3.529 3.963,7.598 4.293,13.513 0.15,2.726 0.45,4.771 0.67,4.546 0.22,-0.226 1.03,-2.23 1.79,-4.452 z"
       stroke-width="4"
       transform="translate(278,354.36)" />
    <path
       id="path3295"
       opacity="0"
       d="m 93.178,199.59 c -1.111,-0.11 -4.52,-0.56 -7.576,-0.99 C 46.006,192.96 13.031,163.17 3.326,124.25 -0.6964,108.13 -0.5412,89.4 3.7425,74.009 8.5261,56.821 17.3105,41.746 29.6305,29.583 c 6.008,-5.93 9.008,-8.397 15.42,-12.677 26.251,-17.523 59.78,-21.405 89.54,-10.367 23.87,8.851 43.44,26.544 54.93,49.658 11.78,23.69 13.35,52.673 4.21,77.653 -5.15,14.06 -12.74,25.97 -23.29,36.52 -15.08,15.08 -33.67,24.6 -54.79,28.06 -5.62,0.92 -18.348,1.58 -22.472,1.16 z m 20.692,-6.07 c 4.73,-0.69 11.02,-2.09 14.83,-3.3 2.06,-0.66 1.99,-1.17 -1.13,-7.75 -2.57,-5.43 -4.84,-8.5 -15.09,-20.33 C 102.83,151 98.658,145.8 94.947,140.29 c -6.003,-8.92 -7.809,-13.91 -7.485,-20.69 0.275,-5.75 2.422,-10.47 6.968,-15.33 1.736,-1.86 3.012,-3.37 2.835,-3.37 -1.034,0 -7.474,3.36 -9.806,5.13 -3.841,2.9 -5.401,4.72 -7.29,8.5 -1.565,3.14 -1.638,3.55 -1.628,9.09 0.017,9.16 2.405,17.81 9.991,36.17 5.884,14.25 6.508,16.71 7.219,28.48 0.197,3.26 0.596,5.99 0.909,6.21 0.738,0.53 10.88,-0.03 17.21,-0.96 z M 59.709,180.51 c 2.969,-7.02 3.307,-9.2 5.199,-33.65 1.222,-15.78 2.313,-22.89 4.616,-30.05 1.861,-5.8 2.946,-7.68 6.425,-11.14 4.668,-4.64 10.067,-6.755 17.461,-6.836 l 3.809,-0.042 -2.627,-1.243 C 88.18,94.516 79.354,94.08 73.997,96.533 c -5.703,2.61 -12.182,10.537 -17.818,21.787 -1.391,2.78 -4.578,9.94 -7.083,15.92 -2.504,5.98 -5.073,11.77 -5.709,12.88 -1.56,2.71 -6.967,9.67 -10.377,13.36 l -2.779,3 1.072,1.45 c 1.339,1.81 7.283,7.18 11.617,10.49 4.387,3.35 13.659,8.88 14.58,8.7 0.406,-0.07 1.4,-1.7 2.209,-3.61 z m 109.08,-15.6 c 2.16,-2.29 5.44,-6.24 7.29,-8.77 3.77,-5.16 8.87,-13.78 8.61,-14.57 -0.26,-0.77 -7.8,-3.68 -11.76,-4.54 -1.92,-0.42 -10.76,-1.33 -19.65,-2.03 -19.82,-1.56 -26.79,-2.49 -34.6,-4.65 -12.36,-3.41 -19.093,-11.95 -19.231,-24.38 l -0.042,-3.81 -1.242,2.62 c -3.037,6.42 -3.49,15.2 -1.057,20.51 3.712,8.11 15.982,16.2 38.472,25.36 12.42,5.05 16.94,7.84 25.28,15.57 1.66,1.55 3.25,2.83 3.52,2.84 0.27,0.01 2.26,-1.85 4.41,-4.15 z M 16.439,127.18 c 5.873,-2.72 8.004,-4.29 21.029,-15.47 17.167,-14.747 24.567,-20.096 32.298,-23.352 2.824,-1.189 3.878,-1.352 8.766,-1.352 5.341,0 5.703,0.071 9.378,1.826 2.443,1.167 5.041,2.965 7.198,4.983 1.856,1.736 3.374,3.002 3.374,2.813 0,-0.189 -0.763,-1.977 -1.696,-3.973 -3.17,-6.78 -7.614,-11.448 -12.951,-13.603 -2.317,-0.936 -3.7,-1.115 -8.334,-1.08 -9.035,0.068 -16.363,2.083 -35.102,9.657 -6.529,2.638 -12.893,5.094 -14.143,5.457 -3.258,0.948 -8.49,1.666 -15.026,2.062 l -5.6818,0.344 v 6.308 c 0,8.1 1.6093,18.39 4.1094,26.26 0.6204,1.96 0.6824,1.95 6.7814,-0.88 z m 119.42,-7.77 c 6.68,-1.61 13.27,-3.91 24.63,-8.6 13.92,-5.75 16.43,-6.37 28.78,-7.18 l 5.18,-0.34 -0.01,-5.868 c -0.02,-7.727 -2.24,-21.047 -4.53,-27.067 l -0.49,-1.274 -2.54,1 c -7.5,2.959 -10.66,5.159 -24.12,16.815 -11.14,9.647 -16.35,13.824 -21.86,17.534 -8.91,6 -13.9,7.81 -20.68,7.48 -5.78,-0.27 -10.47,-2.41 -15.41,-7.03 -3.8,-3.55 -3.94,-3.26 -1.15,2.33 3.47,6.93 8.97,11.87 14.89,13.37 3.12,0.79 11.5,0.23 17.31,-1.17 z m -9.96,-17.13 c 8.05,-3.707 15.33,-14.551 24.43,-36.392 6.26,-15.032 7.56,-17.237 15.54,-26.307 l 3.51,-3.989 -4.02,-3.867 c -6.88,-6.625 -21.24,-16.497 -23.39,-16.073 -0.92,0.183 -3.38,6.421 -4.35,11.025 -0.42,2.008 -1,6.403 -1.28,9.767 -0.28,3.364 -0.95,11.457 -1.49,17.985 -1.84,22.463 -4.4,32.049 -10.15,38.137 -4.61,4.869 -8.86,6.7 -16.87,7.257 l -5.06,0.347 2.02,0.91 c 7.05,3.17 15.76,3.66 21.11,1.2 z m -18.07,-6.566 c 5.82,-2.912 9.87,-6.851 12.31,-11.991 1.19,-2.501 1.32,-3.355 1.31,-8.586 -0.01,-9.158 -2.4,-17.805 -9.99,-36.168 -5.83,-14.107 -6.46,-16.585 -7.22,-28.355 l -0.33,-5.1773 h -5.224 c -6.618,0 -15.005,1.1448 -22.376,3.0544 -3.166,0.8202 -5.837,1.4912 -5.935,1.4912 -1.03,0 2.546,8.1867 5.477,12.539 0.973,1.444 6.292,7.893 11.82,14.331 14.738,17.167 20.088,24.566 23.348,32.298 1.19,2.823 1.35,3.878 1.35,8.765 0,5.341 -0.07,5.704 -1.82,9.379 -1.18,2.468 -2.97,5.044 -5.06,7.271 -3.55,3.799 -3.26,3.943 2.34,1.149 z m -5,-4.162 c 1.18,-3.415 1.4,-4.901 1.43,-9.596 0.03,-5.022 -0.1,-5.837 -1.34,-8.476 C 99.107,65.341 87.378,57.565 65.398,48.602 51.986,43.133 49.953,41.942 41.452,34.572 l -5.257,-4.558 -4.102,4.253 c -2.256,2.339 -5.564,6.178 -7.352,8.532 -3.552,4.677 -9.093,13.5 -9.093,14.478 0,0.724 6.725,3.406 11.235,4.482 1.738,0.414 10.433,1.321 19.322,2.015 17.822,1.392 25.111,2.27 31.567,3.804 9.351,2.222 14.232,4.987 18.304,10.367 2.671,3.529 3.963,7.598 4.293,13.513 0.15,2.726 0.45,4.771 0.67,4.546 0.22,-0.226 1.03,-2.23 1.79,-4.452 z"
       stroke-width="4"
       transform="translate(278,354.36)" />
    <path
       id="path3297"
       opacity="0"
       d="m 93.178,199.59 c -1.111,-0.11 -4.52,-0.56 -7.576,-0.99 C 46.006,192.96 13.031,163.17 3.326,124.25 -0.6964,108.13 -0.5412,89.4 3.7425,74.009 8.5261,56.821 17.3105,41.746 29.6305,29.583 c 6.008,-5.93 9.008,-8.397 15.42,-12.677 26.251,-17.523 59.78,-21.405 89.54,-10.367 23.87,8.851 43.44,26.544 54.93,49.658 11.78,23.69 13.35,52.673 4.21,77.653 -5.15,14.06 -12.74,25.97 -23.29,36.52 -15.08,15.08 -33.67,24.6 -54.79,28.06 -5.62,0.92 -18.348,1.58 -22.472,1.16 z m 20.692,-6.07 c 4.73,-0.69 11.02,-2.09 14.83,-3.3 2.06,-0.66 1.99,-1.17 -1.13,-7.75 -2.57,-5.43 -4.84,-8.5 -15.09,-20.33 C 102.83,151 98.658,145.8 94.947,140.29 c -6.003,-8.92 -7.809,-13.91 -7.485,-20.69 0.275,-5.75 2.422,-10.47 6.968,-15.33 1.736,-1.86 3.012,-3.37 2.835,-3.37 -1.034,0 -7.474,3.36 -9.806,5.13 -3.841,2.9 -5.401,4.72 -7.29,8.5 -1.565,3.14 -1.638,3.55 -1.628,9.09 0.017,9.16 2.405,17.81 9.991,36.17 5.884,14.25 6.508,16.71 7.219,28.48 0.197,3.26 0.596,5.99 0.909,6.21 0.738,0.53 10.88,-0.03 17.21,-0.96 z M 59.709,180.51 c 2.969,-7.02 3.307,-9.2 5.199,-33.65 1.222,-15.78 2.313,-22.89 4.616,-30.05 1.861,-5.8 2.946,-7.68 6.425,-11.14 4.668,-4.64 10.067,-6.755 17.461,-6.836 l 3.809,-0.042 -2.627,-1.243 C 88.18,94.516 79.354,94.08 73.997,96.533 c -5.703,2.61 -12.182,10.537 -17.818,21.787 -1.391,2.78 -4.578,9.94 -7.083,15.92 -2.504,5.98 -5.073,11.77 -5.709,12.88 -1.56,2.71 -6.967,9.67 -10.377,13.36 l -2.779,3 1.072,1.45 c 1.339,1.81 7.283,7.18 11.617,10.49 4.387,3.35 13.659,8.88 14.58,8.7 0.406,-0.07 1.4,-1.7 2.209,-3.61 z m 109.08,-15.6 c 2.16,-2.29 5.44,-6.24 7.29,-8.77 3.77,-5.16 8.87,-13.78 8.61,-14.57 -0.26,-0.77 -7.8,-3.68 -11.76,-4.54 -1.92,-0.42 -10.76,-1.33 -19.65,-2.03 -19.82,-1.56 -26.79,-2.49 -34.6,-4.65 -12.36,-3.41 -19.093,-11.95 -19.231,-24.38 l -0.042,-3.81 -1.242,2.62 c -3.037,6.42 -3.49,15.2 -1.057,20.51 3.712,8.11 15.982,16.2 38.472,25.36 12.42,5.05 16.94,7.84 25.28,15.57 1.66,1.55 3.25,2.83 3.52,2.84 0.27,0.01 2.26,-1.85 4.41,-4.15 z M 16.439,127.18 c 5.873,-2.72 8.004,-4.29 21.029,-15.47 17.167,-14.747 24.567,-20.096 32.298,-23.352 2.824,-1.189 3.878,-1.352 8.766,-1.352 5.341,0 5.703,0.071 9.378,1.826 2.443,1.167 5.041,2.965 7.198,4.983 1.856,1.736 3.374,3.002 3.374,2.813 0,-0.189 -0.763,-1.977 -1.696,-3.973 -3.17,-6.78 -7.614,-11.448 -12.951,-13.603 -2.317,-0.936 -3.7,-1.115 -8.334,-1.08 -9.035,0.068 -16.363,2.083 -35.102,9.657 -6.529,2.638 -12.893,5.094 -14.143,5.457 -3.258,0.948 -8.49,1.666 -15.026,2.062 l -5.6818,0.344 v 6.308 c 0,8.1 1.6093,18.39 4.1094,26.26 0.6204,1.96 0.6824,1.95 6.7814,-0.88 z m 119.42,-7.77 c 6.68,-1.61 13.27,-3.91 24.63,-8.6 13.92,-5.75 16.43,-6.37 28.78,-7.18 l 5.18,-0.34 -0.01,-5.868 c -0.02,-7.727 -2.24,-21.047 -4.53,-27.067 l -0.49,-1.274 -2.54,1 c -7.5,2.959 -10.66,5.159 -24.12,16.815 -11.14,9.647 -16.35,13.824 -21.86,17.534 -8.91,6 -13.9,7.81 -20.68,7.48 -5.78,-0.27 -10.47,-2.41 -15.41,-7.03 -3.8,-3.55 -3.94,-3.26 -1.15,2.33 3.47,6.93 8.97,11.87 14.89,13.37 3.12,0.79 11.5,0.23 17.31,-1.17 z m -9.96,-17.13 c 8.05,-3.707 15.33,-14.551 24.43,-36.392 6.26,-15.032 7.56,-17.237 15.54,-26.307 l 3.51,-3.989 -4.02,-3.867 c -6.88,-6.625 -21.24,-16.497 -23.39,-16.073 -0.92,0.183 -3.38,6.421 -4.35,11.025 -0.42,2.008 -1,6.403 -1.28,9.767 -0.28,3.364 -0.95,11.457 -1.49,17.985 -1.84,22.463 -4.4,32.049 -10.15,38.137 -4.61,4.869 -8.86,6.7 -16.87,7.257 l -5.06,0.347 2.02,0.91 c 7.05,3.17 15.76,3.66 21.11,1.2 z m -18.07,-6.566 c 5.82,-2.912 9.87,-6.851 12.31,-11.991 1.19,-2.501 1.32,-3.355 1.31,-8.586 -0.01,-9.158 -2.4,-17.805 -9.99,-36.168 -5.83,-14.107 -6.46,-16.585 -7.22,-28.355 l -0.33,-5.1773 h -5.224 c -6.618,0 -15.005,1.1448 -22.376,3.0544 -3.166,0.8202 -5.837,1.4912 -5.935,1.4912 -1.03,0 2.546,8.1867 5.477,12.539 0.973,1.444 6.292,7.893 11.82,14.331 14.738,17.167 20.088,24.566 23.348,32.298 1.19,2.823 1.35,3.878 1.35,8.765 0,5.341 -0.07,5.704 -1.82,9.379 -1.18,2.468 -2.97,5.044 -5.06,7.271 -3.55,3.799 -3.26,3.943 2.34,1.149 z m -5,-4.162 c 1.18,-3.415 1.4,-4.901 1.43,-9.596 0.03,-5.022 -0.1,-5.837 -1.34,-8.476 C 99.107,65.341 87.378,57.565 65.398,48.602 51.986,43.133 49.953,41.942 41.452,34.572 l -5.257,-4.558 -4.102,4.253 c -2.256,2.339 -5.564,6.178 -7.352,8.532 -3.552,4.677 -9.093,13.5 -9.093,14.478 0,0.724 6.725,3.406 11.235,4.482 1.738,0.414 10.433,1.321 19.322,2.015 17.822,1.392 25.111,2.27 31.567,3.804 9.351,2.222 14.232,4.987 18.304,10.367 2.671,3.529 3.963,7.598 4.293,13.513 0.15,2.726 0.45,4.771 0.67,4.546 0.22,-0.226 1.03,-2.23 1.79,-4.452 z"
       stroke-width="4"
       transform="translate(278,354.36)" />
    <use
       id="use3341"
       xlink:href="#use3230"
       transform="matrix(0.70711,0.70711,-0.70711,0.70711,431.36,-134.47)"
       height="200"
       width="200"
       y="0"
       x="0" />
    <use
       id="use3343"
       xlink:href="#use3230"
       transform="rotate(90,378.0005,453.4595)"
       height="200"
       width="200"
       y="0"
       x="0" />
    <use
       id="use3345"
       xlink:href="#use3230"
       transform="matrix(-0.70711,0.70711,-0.70711,-0.70711,965.93,506.82)"
       height="200"
       width="200"
       y="0"
       x="0" />
    <use
       id="use3347"
       xlink:href="#use3230"
       transform="rotate(180,378,453.46)"
       height="200"
       width="200"
       y="0"
       x="0" />
    <use
       id="use3349"
       xlink:href="#use3230"
       transform="matrix(-0.70711,-0.70711,0.70711,-0.70711,324.64,1041.4)"
       height="200"
       width="200"
       y="0"
       x="0" />
    <use
       id="use3351"
       xlink:href="#use3230"
       transform="rotate(-90,378.0005,453.4595)"
       height="200"
       width="200"
       y="0"
       x="0" />
    <use
       id="use3353"
       xlink:href="#use3230"
       transform="matrix(0.70711,-0.70711,0.70711,0.70711,-209.93,400.1)"
       height="200"
       width="200"
       y="0"
       x="0" />
    <path
       id="path3355"
       d="m 200,100 a 100,100 0 1 1 -200,0 100,100 0 1 1 200,0 z"
       fill="url(#radialGradient3363)"
       transform="translate(278,354.36)"
       style="fill:url(#radialGradient3363)" />
  </g>
  <metadata
     id="metadata27">
    <rdf:RDF>
      <cc:Work>
        <dc:format>image/svg+xml</dc:format>
        <dc:type
           rdf:resource="http://purl.org/dc/dcmitype/StillImage" />
        <cc:license
           rdf:resource="http://creativecommons.org/licenses/publicdomain/" />
        <dc:publisher>
          <cc:Agent
             rdf:about="http://openclipart.org/">
            <dc:title>Openclipart</dc:title>
          </cc:Agent>
        </dc:publisher>
      </cc:Work>
      <cc:License
         rdf:about="http://creativecommons.org/licenses/publicdomain/">
        <cc:permits
           rdf:resource="http://creativecommons.org/ns#Reproduction" />
        <cc:permits
           rdf:resource="http://creativecommons.org/ns#Distribution" />
        <cc:permits
           rdf:resource="http://creativecommons.org/ns#DerivativeWorks" />
      </cc:License>
    </rdf:RDF>
  </metadata>
</svg>
