<?xml version="1.0" encoding="UTF-8" standalone="no"?>
<!-- Created with Inkscape (http://www.inkscape.org/) -->

<svg
   width="77.252434mm"
   height="67.679329mm"
   viewBox="0 0 273.7291 239.80864"
   id="svg4438"
   version="1.1"
   inkscape:version="1.1.1 (3bf5ae0d25, 2021-09-20)"
   sodipodi:docname="wN.svg"
   xmlns:inkscape="http://www.inkscape.org/namespaces/inkscape"
   xmlns:sodipodi="http://sodipodi.sourceforge.net/DTD/sodipodi-0.dtd"
   xmlns="http://www.w3.org/2000/svg"
   xmlns:svg="http://www.w3.org/2000/svg"
   xmlns:rdf="http://www.w3.org/1999/02/22-rdf-syntax-ns#"
   xmlns:cc="http://creativecommons.org/ns#"
   xmlns:dc="http://purl.org/dc/elements/1.1/">
  <defs
     id="defs4440" />
  <sodipodi:namedview
     id="base"
     pagecolor="#ffffff"
     bordercolor="#666666"
     borderopacity="1.0"
     inkscape:pageopacity="0.0"
     inkscape:pageshadow="2"
     inkscape:zoom="1.979899"
     inkscape:cx="62.881996"
     inkscape:cy="107.83378"
     inkscape:document-units="px"
     inkscape:current-layer="layer1"
     showgrid="false"
     fit-margin-top="0"
     fit-margin-left="0"
     fit-margin-right="0"
     fit-margin-bottom="0"
     inkscape:window-width="1920"
     inkscape:window-height="1001"
     inkscape:window-x="-9"
     inkscape:window-y="-9"
     inkscape:window-maximized="1"
     inkscape:pagecheckerboard="0" />
  <metadata
     id="metadata4443">
    <rdf:RDF>
      <cc:Work
         rdf:about="">
        <dc:format>image/svg+xml</dc:format>
        <dc:type
           rdf:resource="http://purl.org/dc/dcmitype/StillImage" />
        <dc:title />
      </cc:Work>
    </rdf:RDF>
  </metadata>
  <g
     inkscape:label="Calque 1"
     inkscape:groupmode="layer"
     id="layer1"
     transform="translate(-191.70687,-63.886462)">
    <g
       id="g4259"
       transform="matrix(0.73532831,0,0,0.73739384,70.726427,-103.88264)">
      <path
         sodipodi:nodetypes="ssssssssssssssccsccsssssssssssss"
         inkscape:connector-curvature="0"
         id="path3413"
         d="m 222.14285,492.36221 c 116.43049,25.25773 150.68646,-6.46848 242.85715,9.28571 17.21428,2.94233 -24.25847,-29.73525 -22.85715,-47.14286 4.25694,-52.88092 -10.67272,-48.45589 -2.85714,-70.71428 4.8085,-13.69437 14.70859,-28.55839 28.57143,-32.85714 6.34314,-1.96695 15.4753,10.43921 19.28571,5 2.65249,-3.78632 -8.35908,-6.83294 -7.85714,-11.42858 0.53043,-4.85643 13.15519,-5.76819 10.71429,-10 -2.86005,-4.95848 -11.90786,8.51136 -16.42857,5 -4.14107,-3.21649 5.85107,-14.66178 0.71428,-15.71428 -5.97865,-1.22499 -0.94546,14.46324 -6.42857,17.14286 -3.5859,1.75244 -8.87388,-6.63791 -11.42857,-3.57143 -3.27216,3.92769 9.02214,10.21928 4.28572,12.14286 -14.79612,6.00907 -27.14286,24.99999 -27.14286,24.99999 -10.89062,8.32243 -10.82977,-18.30546 -9.79822,-39.66823 -16.33925,-25.32968 -5.46725,-6.90986 -10.61331,-17.57154 -1.80238,0.75188 -22.44562,-10.61737 -22.44562,-10.61737 -39.8375,-11.1019 -34.91291,2.02347 -59.28571,1.42857 -37.04047,20.0492 -32.71049,7.06844 -37.14286,48.57144 -1.97119,15.38404 -33.9318,-8.11998 -37.14286,-17.14287 -2.32465,-6.53212 11.95177,-16.97239 5.71429,-20 -4.75592,-2.30848 -4.00074,12.72696 -9.28571,12.85715 -6.09637,0.15017 -5.54137,-15.87602 -11.42858,-14.28572 -6.27387,1.69475 1.22696,14.23065 -2.85714,19.28572 -2.55687,3.16476 -12.25426,0.3018 -11.42857,4.28571 0.96761,4.66863 11.15527,-4.31049 14.28571,-0.71428 3.34189,3.83912 -7.42785,12.76044 -2.85714,15 4.84738,2.37513 5.31643,-12.1816 10.71429,-12.14286 13.17044,0.0945 23.627,23.16891 25.71428,30 7.85714,25.71429 -2.97965,43.23455 0,51.42857 8.57143,23.57143 5.71429,33.57143 -10.71428,35.71429 -9.94127,1.29669 -61.59228,27.36428 -42.85715,31.42857 z"
         style="fill:#d4aa00;fill-rule:evenodd;stroke:#000000;stroke-width:1.5;stroke-linecap:butt;stroke-linejoin:miter;stroke-miterlimit:4;stroke-dasharray:none;stroke-opacity:1" />
      <path
         sodipodi:nodetypes="sssss"
         inkscape:connector-curvature="0"
         id="path3417"
         d="m 351.42856,342.00507 c 0,11.63743 -2.12073,19.28571 -11.78571,19.28571 -9.66498,0 -23.21429,-7.64828 -23.21429,-19.28571 0,-11.63743 14.14847,-22.08158 23.81345,-22.08158 9.66499,0 11.18655,10.44415 11.18655,22.08158 z"
         style="opacity:1;fill:#fff6d5;fill-opacity:1;fill-rule:nonzero;stroke:#000000;stroke-width:2;stroke-linecap:round;stroke-linejoin:round;stroke-miterlimit:4;stroke-dasharray:none;stroke-dashoffset:0;stroke-opacity:1" />
      <path
         sodipodi:nodetypes="sssss"
         inkscape:connector-curvature="0"
         id="ellipse3419"
         d="m 403.83787,342.69584 c 0,8.24717 -9.65482,13.14711 -18.48075,13.1471 -8.82591,0 -14.83751,-6.03264 -14.83752,-14.27981 0,-8.24717 14.22589,-15.94298 23.05181,-15.94298 8.82593,0 10.26647,8.82851 10.26646,17.07569 z"
         style="opacity:1;fill:#fff6d5;fill-opacity:1;fill-rule:nonzero;stroke:#000000;stroke-width:1.46708;stroke-linecap:round;stroke-linejoin:round;stroke-miterlimit:4;stroke-dasharray:none;stroke-dashoffset:0;stroke-opacity:1" />
      <ellipse
         ry="3.2142856"
         rx="2.6785715"
         cy="339.50507"
         cx="344.82144"
         id="path4225"
         style="opacity:1;fill:#000000;fill-opacity:1;fill-rule:nonzero;stroke:#000000;stroke-width:2;stroke-linecap:round;stroke-linejoin:round;stroke-miterlimit:4;stroke-dasharray:none;stroke-dashoffset:0;stroke-opacity:1" />
      <ellipse
         ry="3.0357144"
         rx="2.8571429"
         cy="341.46936"
         cx="379.64285"
         id="path4227"
         style="opacity:1;fill:#000000;fill-opacity:1;fill-rule:nonzero;stroke:#000000;stroke-width:2;stroke-linecap:round;stroke-linejoin:round;stroke-miterlimit:4;stroke-dasharray:none;stroke-dashoffset:0;stroke-opacity:1" />
      <path
         sodipodi:nodetypes="csssssssscsscsssc"
         inkscape:connector-curvature="0"
         id="path4229"
         d="m 314.66251,362.42802 c 0,0 16.41498,19.69797 13.13199,25.25381 -3.283,5.55584 -7.57615,12.37437 -8.33376,21.46575 -0.75762,9.09137 1.76777,27.77918 7.57614,30.5571 5.80838,2.77792 15.9099,3.53554 20.20305,10.35407 4.29315,6.81853 1.59943,18.70658 2.77792,21.71828 4.54569,11.61675 11.36422,19.44543 23.48605,15.9099 12.12183,-3.53553 25.00127,-9.59645 24.74873,-20.70813 -0.25253,-11.11167 -3.84148,-23.92428 -6.31345,-29.29442 l -7.32361,-15.9099 c -6.31345,-14.14214 -2.27284,-24.4962 2.77792,-28.53681 5.05076,-4.04061 11.23621,-6.21539 14.39468,-10.35407 7.32361,-9.59645 16.92005,-15.15228 16.92005,-15.15228 0,0 -10.10152,7.57614 -24.74873,12.62691 -14.64721,5.05076 -30.30458,5.05076 -39.90103,3.78807 -9.59645,-1.2627 -25.75889,-8.08123 -29.29442,-13.38453 -3.53554,-5.3033 -10.10153,-8.33375 -10.10153,-8.33375 z"
         style="fill:#2b2200;fill-rule:evenodd;stroke:#000000;stroke-width:1px;stroke-linecap:butt;stroke-linejoin:miter;stroke-opacity:1" />
      <path
         sodipodi:nodetypes="sssss"
         inkscape:connector-curvature="0"
         id="path4231"
         d="m 272.74118,474.04988 c -4.29315,6.82675 -10.14613,15.15229 -17.67767,15.15229 -7.53154,0 -8.08122,-3.52732 -8.08122,-11.61675 0,-8.08943 10.39867,-15.65736 17.93021,-15.65736 7.53154,0 12.13513,5.27395 7.82868,12.12182 z"
         style="opacity:1;fill:#554400;fill-opacity:1;fill-rule:nonzero;stroke:#000000;stroke-width:2;stroke-linecap:round;stroke-linejoin:round;stroke-miterlimit:4;stroke-dasharray:none;stroke-dashoffset:0;stroke-opacity:1" />
      <path
         sodipodi:nodetypes="csssssc"
         inkscape:connector-curvature="0"
         id="path4237"
         d="m 303.04577,322.27445 c 0,0 -15.92046,-22.45342 -14.14214,-31.56726 2.02031,-10.35407 13.3875,-24.23107 21.97082,-26.26397 9.59645,-2.27285 -13.63705,13.63706 -5.05076,28.28427 2.5286,4.3135 16.16244,14.64721 22.22336,16.66751 2.39578,0.7986 -3.03378,6.60698 -10.07245,9.43779 -7.03867,2.83081 -14.92883,3.44166 -14.92883,3.44166 z"
         style="fill:#fff6d5;fill-rule:evenodd;stroke:#000000;stroke-width:1.5;stroke-linecap:butt;stroke-linejoin:miter;stroke-miterlimit:4;stroke-dasharray:none;stroke-opacity:1" />
      <path
         style="fill:#fff6d5;fill-rule:evenodd;stroke:#000000;stroke-width:1.5;stroke-linecap:butt;stroke-linejoin:miter;stroke-miterlimit:4;stroke-dasharray:none;stroke-opacity:1"
         d="m 423.7204,334.12346 c 0,0 22.26391,-16.18442 23.49296,-25.38844 1.39631,-10.45651 -4.93721,-27.23956 -12.41997,-31.91015 -8.36599,-5.22186 8.56094,17.28146 -4.25787,28.41445 -3.77505,3.27859 -19.99726,8.71062 -26.38599,8.68697 -2.52536,-0.009 0.76204,7.23017 6.52613,12.16289 5.76407,4.93274 13.04474,8.03428 13.04474,8.03428 z"
         id="path4239"
         inkscape:connector-curvature="0"
         sodipodi:nodetypes="csssssc" />
      <path
         sodipodi:nodetypes="csscsssc"
         inkscape:connector-curvature="0"
         id="path4243"
         d="m 337.13841,442.4826 c 0,0 23.48605,-8.58629 31.06219,-3.78807 7.57615,4.79823 11.61676,-6.56599 18.94036,-4.54568 7.32361,2.0203 3.78808,2.27284 3.78808,2.27284 0,0 9.31444,21.11281 6.56599,35.1028 0,0 -8.62776,16.10418 -29.04189,17.93021 0,0 -19.50261,-5.41296 -18.94036,-19.95051 0.91559,-23.67372 -12.37437,-27.02159 -12.37437,-27.02159 z"
         style="fill:#484537;fill-rule:evenodd;stroke:#000000;stroke-width:1px;stroke-linecap:butt;stroke-linejoin:miter;stroke-opacity:1" />
      <path
         style="opacity:1;fill:#554400;fill-opacity:1;fill-rule:nonzero;stroke:#000000;stroke-width:2;stroke-linecap:round;stroke-linejoin:round;stroke-miterlimit:4;stroke-dasharray:none;stroke-dashoffset:0;stroke-opacity:1"
         d="m 294.15473,407.20736 c 0.90933,8.01304 3.67899,18.52789 -2.20387,23.23066 -5.88286,4.70277 -8.51471,2.29082 -13.56583,-4.02781 -5.05112,-6.31863 -1.65424,-18.72295 4.22862,-23.42572 5.88286,-4.70277 10.62896,-3.81497 11.54108,4.22287 z"
         id="path4245"
         inkscape:connector-curvature="0"
         sodipodi:nodetypes="sssss" />
      <path
         sodipodi:nodetypes="sssss"
         inkscape:connector-curvature="0"
         id="path4247"
         d="m 300.95073,461.00483 c -1.46245,1.45081 -3.13197,3.67063 -5.00604,3.23574 -1.87408,-0.43488 -1.80718,-1.34433 -1.34008,-3.35723 0.46709,-2.01289 3.49159,-3.29559 5.36567,-2.86071 1.87407,0.43489 2.44743,1.52689 0.98045,2.9822 z"
         style="opacity:1;fill:#554400;fill-opacity:1;fill-rule:nonzero;stroke:#000000;stroke-width:0.510885;stroke-linecap:round;stroke-linejoin:round;stroke-miterlimit:4;stroke-dasharray:none;stroke-dashoffset:0;stroke-opacity:1" />
      <path
         style="opacity:1;fill:#554400;fill-opacity:1;fill-rule:nonzero;stroke:#000000;stroke-width:1.3885;stroke-linecap:round;stroke-linejoin:round;stroke-miterlimit:4;stroke-dasharray:none;stroke-dashoffset:0;stroke-opacity:1"
         d="m 310.65887,463.5902 c -4.58526,-3.21273 -5.77137,-8.124 -5.51108,-13.3463 0.26037,-5.22229 2.72507,-5.48152 8.33422,-5.20199 5.60909,0.27953 10.49729,7.7514 10.23705,12.9737 -0.26037,5.22226 -8.46074,8.79726 -13.06019,5.57459 z"
         id="path4249"
         inkscape:connector-curvature="0"
         sodipodi:nodetypes="sssss" />
      <path
         sodipodi:nodetypes="sssss"
         inkscape:connector-curvature="0"
         id="path4251"
         d="m 352.28852,377.3339 c -2.51461,-1.7619 -3.16509,-4.4553 -3.02234,-7.31927 0.14279,-2.86397 1.49446,-3.00614 4.57059,-2.85284 3.07609,0.1533 5.75684,4.25097 5.61412,7.11494 -0.14279,2.86395 -4.63997,4.82453 -7.16237,3.05717 z"
         style="opacity:1;fill:#554400;fill-opacity:1;fill-rule:nonzero;stroke:#000000;stroke-width:0.761471;stroke-linecap:round;stroke-linejoin:round;stroke-miterlimit:4;stroke-dasharray:none;stroke-dashoffset:0;stroke-opacity:1" />
      <path
         style="opacity:1;fill:#554400;fill-opacity:1;fill-rule:nonzero;stroke:#000000;stroke-width:0.414955;stroke-linecap:round;stroke-linejoin:round;stroke-miterlimit:4;stroke-dasharray:none;stroke-dashoffset:0;stroke-opacity:1"
         d="m 369.92339,375.98618 c -0.27829,-1.64989 0.51809,-2.93274 1.68412,-3.97301 1.16603,-1.04027 1.73832,-0.57011 2.85567,0.68229 1.11736,1.25236 0.55272,3.86035 -0.61329,4.90063 -1.16603,1.04026 -3.64737,0.0451 -3.9265,-1.60991 z"
         id="path4253"
         inkscape:connector-curvature="0"
         sodipodi:nodetypes="sssss" />
      <path
         style="opacity:1;fill:#554400;fill-opacity:1;fill-rule:nonzero;stroke:#000000;stroke-width:0.761471;stroke-linecap:round;stroke-linejoin:round;stroke-miterlimit:4;stroke-dasharray:none;stroke-dashoffset:0;stroke-opacity:1"
         d="m 428.00281,421.61961 c -2.51461,-1.7619 -3.16509,-4.4553 -3.02234,-7.31927 0.14279,-2.86397 1.49446,-3.00614 4.57059,-2.85284 3.07609,0.1533 5.75684,4.25097 5.61412,7.11494 -0.14279,2.86395 -4.63997,4.82453 -7.16237,3.05717 z"
         id="path4255"
         inkscape:connector-curvature="0"
         sodipodi:nodetypes="sssss" />
      <path
         sodipodi:nodetypes="sssss"
         inkscape:connector-curvature="0"
         id="path4257"
         d="m 417.68803,466.49865 c -3.33329,-2.33552 -4.19554,-5.90581 -4.00632,-9.7022 0.18928,-3.79639 3.74878,-6.25769 7.8264,-6.05448 4.07757,0.20321 5.67414,11.70419 5.67414,11.70419 -0.18928,3.79636 -6.1506,6.39525 -9.49422,4.05249 z"
         style="opacity:1;fill:#554400;fill-opacity:1;fill-rule:nonzero;stroke:#000000;stroke-width:1.00938;stroke-linecap:round;stroke-linejoin:round;stroke-miterlimit:4;stroke-dasharray:none;stroke-dashoffset:0;stroke-opacity:1" />
    </g>
    <path
       style="opacity:1;fill:#ffffff;fill-opacity:1;fill-rule:nonzero;stroke:#000000;stroke-width:1.03199;stroke-linecap:round;stroke-linejoin:round;stroke-miterlimit:4;stroke-dasharray:none;stroke-dashoffset:0;stroke-opacity:1"
       d="m 316.13309,175.04024 3.68514,1.39586 c 0.94429,0.35767 1.41734,1.40795 1.06067,2.35489 -0.35667,0.94695 -1.70749,2.18805 -2.58029,1.67957 l -3.45316,-2.01177 c -0.87279,-0.50848 -0.75675,-1.2985 -0.40008,-2.24543 0.35668,-0.94695 0.74343,-1.53079 1.68772,-1.17312 z"
       id="rect3354"
       inkscape:connector-curvature="0"
       sodipodi:nodetypes="sssssss" />
    <path
       sodipodi:nodetypes="sssssss"
       inkscape:connector-curvature="0"
       id="path4157"
       d="m 328.24488,179.30198 3.91447,0.44252 c 1.00304,0.1134 1.71952,1.01446 1.60644,2.02032 -0.11307,1.00588 -0.69063,0.97225 -1.69428,1.08012 l -4.49746,0.48335 c -1.00365,0.10787 -0.78979,-1.46657 -0.67672,-2.47243 0.11308,-1.00587 0.3445,-1.66726 1.34755,-1.55388 z"
       style="opacity:1;fill:#ffffff;fill-opacity:1;fill-rule:nonzero;stroke:#000000;stroke-width:1.03199;stroke-linecap:round;stroke-linejoin:round;stroke-miterlimit:4;stroke-dasharray:none;stroke-dashoffset:0;stroke-opacity:1" />
    <path
       style="opacity:1;fill:#ffffff;fill-opacity:1;fill-rule:nonzero;stroke:#000000;stroke-width:1.03199;stroke-linecap:round;stroke-linejoin:round;stroke-miterlimit:4;stroke-dasharray:none;stroke-dashoffset:0;stroke-opacity:1"
       d="m 339.69974,180.35417 3.93524,-0.17839 c 1.00836,-0.0457 1.85685,0.73156 1.90244,1.74278 0.0456,1.0112 -0.23819,3.09052 -1.24243,2.98837 l -4.62832,-0.47078 c -1.00423,-0.10214 -1.0093,-1.32426 -1.05488,-2.33546 -0.0456,-1.01121 0.0796,-1.70081 1.08795,-1.74652 z"
       id="path4159"
       inkscape:connector-curvature="0"
       sodipodi:nodetypes="sssssss" />
    <path
       sodipodi:nodetypes="sssssss"
       inkscape:connector-curvature="0"
       id="path4161"
       d="m 354.41841,178.48595 3.82305,-0.9589 c 0.92681,-0.23246 0.24933,0.47794 0.29247,1.43501 0.0432,0.95708 0.19255,0.84132 -0.65494,1.28353 l -3.59035,1.87339 c -0.84749,0.4422 -0.95527,-1.25337 -0.99842,-2.21044 -0.0432,-0.95707 0.20137,-1.19013 1.12819,-1.42259 z"
       style="opacity:1;fill:#ffffff;fill-opacity:1;fill-rule:nonzero;stroke:#000000;stroke-width:0.976742;stroke-linecap:round;stroke-linejoin:round;stroke-miterlimit:4;stroke-dasharray:none;stroke-dashoffset:0;stroke-opacity:1" />
  </g>
</svg>
